<?xml version="1.0" standalone="no"?>
<!DOCTYPE svg PUBLIC "-//W3C//DTD SVG 1.1//EN" "http://www.w3.org/Graphics/SVG/1.1/DTD/svg11.dtd" >
<svg xmlns="http://www.w3.org/2000/svg">
<metadata></metadata>
<defs>
<font id="dfds_lightregular" horiz-adv-x="1196" >
<font-face units-per-em="2048" ascent="1536" descent="-512" />
<missing-glyph horiz-adv-x="512" />
<glyph horiz-adv-x="2048" />
<glyph horiz-adv-x="2048" />
<glyph unicode="&#xd;" horiz-adv-x="2048" />
<glyph unicode=" "  horiz-adv-x="512" />
<glyph unicode="&#x09;" horiz-adv-x="512" />
<glyph unicode="&#xa0;" horiz-adv-x="512" />
<glyph unicode="!" horiz-adv-x="485" d="M137 27v143q0 15 6 21t21 6h158q15 0 20.5 -6t5.5 -21v-143q0 -15 -5.5 -21t-20.5 -6h-158q-15 0 -21 6t-6 21zM166 1415q0 15 6 21t21 6h96q15 0 20.5 -6t5.5 -21l-20 -966q0 -15 -6 -21t-21 -6h-55q-15 0 -21 6t-6 21z" />
<glyph unicode="&#x22;" horiz-adv-x="698" d="M133 924v479q0 15 6 21t21 6h76q15 0 20.5 -6t5.5 -21v-479q0 -15 -5.5 -21t-20.5 -6h-76q-15 0 -21 6t-6 21zM436 924v479q0 15 6 21t21 6h76q15 0 20.5 -6t5.5 -21v-479q0 -15 -5.5 -21t-20.5 -6h-76q-15 0 -21 6t-6 21z" />
<glyph unicode="#" horiz-adv-x="1361" d="M61 440v54q0 15 6 20.5t21 5.5h274l91 404h-250q-15 0 -21 5.5t-6 20.5v54q0 15 6 20.5t21 5.5h274l82 373q3 17 9 22t22 5h59q23 0 23 -21l-10 -53l-72 -326h319l84 373q3 17 9 22t22 5h59q23 0 23 -21l-10 -53l-74 -326h252q15 0 20.5 -5.5t5.5 -20.5v-54 q0 -15 -5.5 -20.5t-20.5 -5.5h-275l-90 -404h250q15 0 21 -5.5t6 -20.5v-54q0 -15 -6 -20.5t-21 -5.5h-272l-86 -387q-3 -17 -9 -22t-22 -5h-59q-23 0 -23 20l10 54l76 340h-321l-86 -387q-3 -17 -9 -22t-22 -5h-60q-22 0 -22 20l10 54l76 340h-252q-15 0 -21 5.5t-6 20.5z M473 518h326l90 408h-326z" />
<glyph unicode="$" d="M129 1018v22q0 131 39.5 205.5t123 108.5t232.5 41v161q0 15 6 21t21 6h76q15 0 20.5 -6t5.5 -21v-157q72 0 148.5 -2.5t116.5 -4.5l40 -3q15 -2 21 -7t6 -20v-70q0 -15 -6 -20.5t-21 -5.5q-1 0 -18 1t-46 2.5t-65 3t-85 2.5t-97 1q-124 0 -196.5 -10t-116 -38.5 t-58 -71.5t-14.5 -116v-18q0 -38 6.5 -63.5t17 -43t36.5 -32t49.5 -23.5t72.5 -24l367 -113q41 -13 67 -23t59.5 -27t53.5 -37.5t39 -50t28 -70t9 -91.5v-33q0 -196 -91.5 -271.5t-322.5 -84.5v-160q0 -15 -5.5 -21t-20.5 -6h-76q-15 0 -21 6t-6 21v158q-71 0 -158 3.5 t-138 7.5l-52 3q-15 2 -20.5 7t-5.5 20v69q0 15 5.5 21t20.5 6q1 0 24.5 -1.5t61.5 -3.5t83 -4t100.5 -3.5t103.5 -1.5q99 0 164 7t110 22t68.5 43.5t33 66t9.5 96.5v29q0 38 -6.5 63.5t-17 43t-36.5 32t-49.5 23.5t-72.5 24l-367 113q-41 13 -67 23t-59.5 27t-53.5 37.5 t-39 50t-28 70t-9 91.5z" />
<glyph unicode="%" horiz-adv-x="1728" d="M133 889v325q0 68 17 111t55.5 67t90 33t130.5 9t129.5 -9t89 -33t55.5 -67t17 -111v-325q0 -119 -70 -169t-221 -50q-159 0 -226 44.5t-67 174.5zM244 889q0 -70 38 -94.5t144 -24.5q105 0 142.5 24.5t37.5 94.5v325q0 70 -37.5 94.5t-142.5 24.5q-106 0 -144 -24.5 t-38 -94.5v-325zM406 14q0 8 24 54l772 1335q10 16 16.5 21.5t20.5 5.5h68q18 0 18 -15q0 -4 -2 -10t-5 -11t-8.5 -14.5t-9.5 -17.5l-772 -1335q-10 -17 -16 -22t-20 -5h-68q-18 0 -18 14zM1012 215v326q0 130 67 174.5t226 44.5q79 0 129.5 -8.5t88.5 -32.5t55 -67t17 -111 v-326q0 -119 -69.5 -169t-220.5 -50q-159 0 -226 44.5t-67 174.5zM1122 215q0 -70 38.5 -94.5t144.5 -24.5q105 0 142.5 24.5t37.5 94.5v326q0 70 -37.5 94t-142.5 24q-107 0 -145 -24t-38 -94v-326z" />
<glyph unicode="&#x26;" horiz-adv-x="1306" d="M86 352v97q0 54 11.5 99t28.5 74.5t42 52.5t46 35t46 20.5t36 10.5t23 4q-13 1 -31 5.5t-51 23t-58.5 47.5t-45.5 84.5t-20 128.5v41q0 66 9.5 117t27.5 89t49 65t68.5 44t92 27t113.5 13.5t139 3.5q73 0 175 -3t167 -5l66 -3q16 -2 21.5 -7t5.5 -19v-70q0 -15 -6 -21 t-21 -6q-1 0 -28 1t-70 3t-93.5 3.5t-109.5 2.5t-107 1q-92 0 -150 -5.5t-103 -19.5t-68 -41.5t-34 -67.5t-11 -102v-12q0 -78 10.5 -123.5t44.5 -81t98 -49.5t170 -14h684q15 0 21 -6t6 -21v-66q0 -15 -6 -20.5t-21 -5.5h-159v-649q0 -15 -6 -21t-21 -6h-25q-14 0 -19 3 t-11 15l-51 115v543h-416q-106 0 -170.5 -13.5t-99 -48t-45.5 -80t-11 -122.5v-60q0 -61 13.5 -102t39 -67.5t75 -40.5t109.5 -19.5t154 -5.5q69 0 156 4t140 8l52 4l-53 -102q-7 -13 -12.5 -16t-20.5 -5q-203 -16 -262 -16q-115 0 -191.5 7.5t-144.5 29.5t-106.5 61.5 t-60 103.5t-21.5 156z" />
<glyph unicode="'" horiz-adv-x="395" d="M133 924v479q0 15 6 21t21 6h76q15 0 20.5 -6t5.5 -21v-479q0 -15 -5.5 -21t-20.5 -6h-76q-15 0 -21 6t-6 21z" />
<glyph unicode="(" horiz-adv-x="690" d="M164 -4v1122q0 169 87 246.5t257 77.5h53q15 0 21 -6t6 -21v-65q0 -15 -6 -21t-21 -6h-51q-110 0 -163.5 -44.5t-53.5 -166.5v-1110q0 -122 53.5 -166.5t163.5 -44.5h51q15 0 21 -6t6 -21v-65q0 -15 -6 -21t-21 -6h-53q-170 0 -257 77.5t-87 246.5z" />
<glyph unicode=")" horiz-adv-x="690" d="M102 -236q0 15 6 21t21 6h51q110 0 163.5 44.5t53.5 166.5v1110q0 122 -53.5 166.5t-163.5 44.5h-51q-15 0 -21 6t-6 21v65q0 15 6 21t21 6h53q170 0 257 -77.5t87 -246.5v-1122q0 -169 -87 -246.5t-257 -77.5h-53q-15 0 -21 6t-6 21v65z" />
<glyph unicode="*" horiz-adv-x="843" d="M82 1016v147q0 23 20 23l54 -10l237 -58l-57 238q-10 43 -10 53q0 21 22 21h148q22 0 22 -21l-10 -53l-57 -238l237 58q43 10 53 10q21 0 21 -23v-147q0 -23 -21 -23l-53 11l-237 57l57 -238q10 -43 10 -53q0 -20 -22 -20h-148q-22 0 -22 20l10 53l57 238l-237 -57 q-44 -11 -54 -11q-20 0 -20 23z" />
<glyph unicode="+" d="M199 692v72q0 15 5.5 21t20.5 6h310v329q0 15 5.5 21t20.5 6h78q15 0 21 -6t6 -21v-329h305q15 0 20.5 -6t5.5 -21v-72q0 -15 -5.5 -20.5t-20.5 -5.5h-305v-336q0 -15 -6 -21t-21 -6h-78q-15 0 -20.5 6t-5.5 21v336h-310q-15 0 -20.5 5.5t-5.5 20.5z" />
<glyph unicode="," horiz-adv-x="415" d="M78 -190q0 11 24 51l86 143h-59q-15 0 -21 6t-6 21v139q0 15 6 21t21 6h158q15 0 20.5 -6t5.5 -21v-137q0 -21 -12 -41l-98 -170q-10 -16 -16.5 -21.5t-20.5 -5.5h-70q-18 0 -18 15z" />
<glyph unicode="-" horiz-adv-x="587" d="M92 498v75q0 15 6 21t21 6h350q15 0 21 -6t6 -21v-75q0 -15 -6 -21t-21 -6h-350q-15 0 -21 6t-6 21z" />
<glyph unicode="." horiz-adv-x="415" d="M102 27v143q0 15 6 21t21 6h158q15 0 20.5 -6t5.5 -21v-143q0 -15 -5.5 -21t-20.5 -6h-158q-15 0 -21 6t-6 21z" />
<glyph unicode="/" horiz-adv-x="575" d="M0 -307l12 53l449 1669q4 17 10 22t21 5h61q22 0 22 -21l-12 -53l-448 -1669q-4 -17 -10 -22t-21 -5h-61q-23 0 -23 21z" />
<glyph unicode="0" d="M96 360v709q0 92 20 158t57.5 109t100.5 67.5t139.5 34.5t184.5 10t184.5 -10t139.5 -34.5t100.5 -67.5t57.5 -109t20 -158v-709q0 -92 -20 -158t-57.5 -108.5t-100.5 -67.5t-139.5 -34.5t-184.5 -9.5t-184.5 9.5t-139.5 34.5t-100.5 67.5t-57.5 108.5t-20 158zM229 360 q0 -150 77 -203t292 -53t292 53t77 203v709q0 150 -77 203t-292 53t-292 -53t-77 -203v-709z" />
<glyph unicode="1" d="M147 27v69q0 15 6 21t21 6h389v1184h-346q-18 0 -18 14q0 7 24 53l17 29q10 17 16 22t20 5h394q15 0 20.5 -6t5.5 -21v-1280h371q15 0 21 -6t6 -21v-69q0 -15 -6 -21t-21 -6h-893q-15 0 -21 6t-6 21z" />
<glyph unicode="2" d="M139 33v264q0 54 10 96.5t25 72t41 54.5t50.5 40.5t60.5 33.5l514 256q63 32 82.5 74.5t19.5 122.5v28q0 96 -30.5 145.5t-113 72t-245.5 22.5q-48 0 -102.5 -1t-99 -2.5t-81.5 -3t-60 -2.5t-24 -1q-15 0 -20.5 5.5t-5.5 20.5v70q0 15 5.5 19.5t20.5 6.5q203 11 367 11 q119 0 201 -10t146.5 -33.5t101 -65.5t55 -103.5t18.5 -150.5v-41q0 -67 -13 -116t-40 -82.5t-56.5 -54.5t-74.5 -44l-514 -256q-64 -32 -84.5 -74.5t-20.5 -121.5v-162h766q15 0 21 -6t6 -21v-69q0 -15 -6 -21t-21 -6h-866q-19 0 -26 7t-7 26z" />
<glyph unicode="3" d="M88 29v69q0 15 6 21t21 6q1 0 30 -1t74 -3t96.5 -4t109 -3t101.5 -1q124 0 200 11.5t123.5 41.5t65 77.5t17.5 125.5v75q0 53 -4.5 88t-18 64.5t-35.5 45.5t-60.5 27t-88.5 15t-125 4q-37 0 -68 -0.5t-50 -1.5t-32 -2t-20 -1.5t-8 -0.5q-12 0 -18 5.5t-15 21.5l-22 41 l-11 22q0 8 11 19l469 516h-707q-15 0 -21 5.5t-6 20.5v70q0 15 6 21t21 6h862q15 0 21 -6t6 -21v-47q0 -24 -17 -41l-466 -508q30 4 65 4q92 0 156.5 -5.5t119.5 -21t88.5 -41t57.5 -67t33.5 -98t9.5 -134.5v-75q0 -93 -20 -158t-59 -108.5t-106.5 -68t-150.5 -34.5 t-203 -10q-77 0 -180 3t-167 6l-64 3q-15 2 -21 7t-6 20z" />
<glyph unicode="4" d="M63 391v76q0 21 13 39l669 897q20 27 41 27h103q18 0 18 -15q0 -6 -26 -43l-670 -885h686v344q0 15 6 21t21 6h80q15 0 20.5 -6t5.5 -21v-804q0 -15 -5.5 -21t-20.5 -6h-80q-15 0 -21 6t-6 21v338h-807q-15 0 -21 5.5t-6 20.5z" />
<glyph unicode="5" d="M147 29v69q0 15 6 21t21 6q1 0 27 -1t66.5 -3t87.5 -4t101.5 -3t98.5 -1q124 0 200 11.5t123.5 41.5t65 77.5t17.5 125.5v110q0 53 -4.5 88t-18 64.5t-35.5 45.5t-60.5 27t-88.5 15t-125 4q-58 0 -130 -3.5t-135.5 -8t-74.5 -4.5l53 102q5 9 9.5 13t8.5 5t15 2 q133 17 254 17q92 0 156.5 -5.5t119.5 -21t88.5 -41t57.5 -67t33.5 -98t9.5 -134.5v-110q0 -93 -20 -158t-59 -108.5t-106.5 -68t-150.5 -34.5t-203 -10q-77 0 -172.5 3t-152.5 6l-56 3q-15 2 -21 7t-6 20zM158 733v670q0 15 5.5 21t20.5 6h813q15 0 21 -6t6 -21v-70 q0 -15 -6 -20.5t-21 -5.5h-710v-600h-103q-15 0 -20.5 5.5t-5.5 20.5z" />
<glyph unicode="6" d="M129 360v697q0 116 29.5 190t98.5 116.5t165 58.5t246 16q73 0 155 -3t128 -5l46 -3q16 -2 21.5 -7t5.5 -19v-70q0 -15 -6 -20.5t-21 -5.5q-1 0 -20 1t-50.5 2.5t-70 3t-89.5 2.5t-99 1q-124 0 -200 -11.5t-123.5 -41.5t-65 -77.5t-17.5 -125.5v-699q0 -150 73.5 -203 t276.5 -53q205 0 279 53t74 203v132q0 53 -4.5 87.5t-18.5 62.5t-35 43t-60.5 25.5t-88.5 13.5t-125 3q-58 0 -136.5 -3.5t-151.5 -8t-81 -4.5l53 102q7 13 12.5 16t20.5 5q162 16 283 16q93 0 156.5 -5t119 -19.5t88.5 -38.5t57.5 -64.5t34 -96.5t9.5 -134v-132 q0 -92 -19.5 -158t-55.5 -108.5t-97 -67.5t-135 -34.5t-179 -9.5q-131 0 -216 16t-148 57t-91 115.5t-28 189.5z" />
<glyph unicode="7" d="M94 1087v316q0 15 6 21t21 6h940q15 0 20.5 -6t5.5 -21v-242q0 -96 -25.5 -155.5t-103.5 -167.5l-274 -379q-57 -78 -76.5 -126t-19.5 -124v-182q0 -15 -6 -21t-21 -6h-80q-15 0 -20.5 6t-5.5 21v186q0 96 25.5 156.5t103.5 167.5l274 378q57 78 76.5 126t19.5 124v142 h-727v-220q0 -15 -5.5 -20.5t-20.5 -5.5h-80q-15 0 -21 5.5t-6 20.5z" />
<glyph unicode="8" d="M84 340v100q0 59 12.5 107t32 78t43.5 52.5t47.5 33.5t43 17.5t31.5 7.5l13 1q-8 1 -21.5 3.5t-47.5 20t-60 45t-47.5 85.5t-21.5 135v64q0 77 11.5 133.5t39 96.5t64 65t95 39t123 19t156.5 5q112 0 185 -7.5t136.5 -29.5t98 -62t53.5 -103t19 -156v-64 q0 -77 -20.5 -135t-50 -86t-58.5 -45t-49 -20l-21 -3q5 0 13 -1t31 -8t44 -17.5t47 -33.5t44.5 -52.5t31 -77.5t12.5 -107v-100q0 -66 -10.5 -117t-30 -89t-53 -64.5t-72.5 -43.5t-95.5 -27t-115.5 -13.5t-139 -3.5q-113 0 -188.5 7.5t-142 29.5t-104 61.5t-58.5 103.5 t-21 156zM217 340q0 -76 18.5 -122t66.5 -71.5t115 -34t181 -8.5q92 0 151 5.5t107 19.5t73.5 41t38.5 68t13 102v63q0 62 -6.5 101.5t-25.5 73.5t-54.5 52t-91.5 28t-139 10h-129q-103 0 -166 -13.5t-96.5 -48.5t-44.5 -80.5t-11 -122.5v-63zM242 1055q0 -62 6.5 -101.5 t25.5 -74.5t54.5 -53.5t91.5 -29t139 -10.5h80q83 0 139 10.5t91.5 29t54.5 53.5t25.5 74.5t6.5 101.5v35q0 62 -11 102t-33 67.5t-66.5 41t-101 19t-146.5 5.5q-112 0 -175.5 -8t-107 -34.5t-58.5 -71t-15 -121.5v-35z" />
<glyph unicode="9" d="M98 909v150q0 92 19.5 158t55.5 109t97 67.5t135 34.5t179 10q131 0 216 -16t148 -57.5t91 -116t28 -189.5v-682q0 -116 -29.5 -190t-98.5 -116.5t-165 -58.5t-246 -16q-73 0 -158.5 2.5t-134.5 5.5l-49 2q-15 2 -20.5 7t-5.5 20v69q0 15 5.5 21t20.5 6q1 0 21.5 -1 t53.5 -2.5t74 -3t93 -2.5t100 -1q124 0 200 11.5t123.5 41.5t65 77.5t17.5 125.5v684q0 150 -73.5 203t-276.5 53q-205 0 -279 -53t-74 -203v-150q0 -53 4.5 -87.5t18.5 -62.5t35 -43t60.5 -25.5t88.5 -13.5t125 -3q58 0 136.5 3.5t151.5 8t81 4.5l-53 -102 q-7 -13 -12.5 -16t-20.5 -5q-162 -16 -283 -16q-93 0 -156.5 5t-119 19.5t-88.5 38.5t-57.5 64.5t-34 96.5t-9.5 134z" />
<glyph unicode=":" horiz-adv-x="477" d="M133 27v143q0 15 6 21t21 6h157q15 0 21 -6t6 -21v-143q0 -15 -6 -21t-21 -6h-157q-15 0 -21 6t-6 21zM133 881v143q0 15 6 21t21 6h157q15 0 21 -6t6 -21v-143q0 -15 -6 -21t-21 -6h-157q-15 0 -21 6t-6 21z" />
<glyph unicode=";" horiz-adv-x="499" d="M109 -195q0 12 24 52l86 143h-59q-15 0 -21 6t-6 21v139q0 15 6 21t21 6h157q15 0 21 -6t6 -21v-137q0 -21 -12 -41l-99 -170q-10 -17 -16 -22t-20 -5h-70q-18 0 -18 14zM133 881v143q0 15 6 21t21 6h157q15 0 21 -6t6 -21v-143q0 -15 -6 -21t-21 -6h-157q-15 0 -21 6 t-6 21z" />
<glyph unicode="&#x3c;" d="M156 690v78q0 14 5.5 20t20.5 13l709 319q40 17 45 17q18 0 18 -23v-80q0 -14 -5.5 -20t-20.5 -13l-615 -270l615 -270q15 -7 20.5 -13t5.5 -20v-84q0 -22 -18 -22q-8 0 -45 16l-709 319q-15 7 -20.5 13t-5.5 20z" />
<glyph unicode="=" d="M199 518v76q0 15 5.5 21t20.5 6h746q15 0 20.5 -6t5.5 -21v-76q0 -15 -5.5 -20.5t-20.5 -5.5h-746q-15 0 -20.5 5.5t-5.5 20.5zM199 862v76q0 15 5.5 21t20.5 6h746q15 0 20.5 -6t5.5 -21v-76q0 -15 -5.5 -20.5t-20.5 -5.5h-746q-15 0 -20.5 5.5t-5.5 20.5z" />
<glyph unicode="&#x3e;" d="M242 344v80q0 14 5.5 20t20.5 13l615 270l-615 270q-15 7 -20.5 13t-5.5 20v84q0 23 18 23q5 0 45 -17l709 -319q15 -7 20.5 -13t5.5 -20v-78q0 -14 -5.5 -20t-20.5 -13l-709 -319q-37 -16 -45 -16q-18 0 -18 22z" />
<glyph unicode="?" horiz-adv-x="958" d="M102 1341v66q0 27 27 27q158 12 301 12q57 0 87.5 -1t84 -7t84 -17.5t70 -35.5t60 -58t35.5 -86.5t15 -120.5v-51q0 -67 -13 -116t-40 -82.5t-56.5 -54.5t-74.5 -44l-137 -67q-64 -32 -84.5 -75t-20.5 -122v-59q0 -15 -5.5 -21t-20.5 -6h-76q-15 0 -21 6t-6 21v69 q0 54 10 96.5t25 72t41 54.5t50.5 40.5t60.5 33.5l137 68q64 32 83 74t19 122v35q0 44 -7.5 77t-18.5 56t-33.5 38t-43 23.5t-58 12.5t-66.5 5t-80 1q-64 0 -139.5 -3t-118.5 -6l-43 -3q-15 0 -21 5.5t-6 20.5zM270 27v143q0 15 6 21t21 6h158q15 0 20.5 -6t5.5 -21v-143 q0 -15 -5.5 -21t-20.5 -6h-158q-15 0 -21 6t-6 21z" />
<glyph unicode="@" horiz-adv-x="2025" d="M174 291v524q0 152 46.5 264t147 192t265.5 119.5t395 39.5q178 0 306 -13t232.5 -44t167 -84.5t95.5 -133.5t33 -192v-523q0 -53 -9.5 -97.5t-24.5 -76.5t-40.5 -58t-50 -42.5t-61 -28.5t-66 -18.5t-72 -10t-71.5 -4t-72 -0.5h-47q-14 0 -19.5 3.5t-11.5 15.5l-51 106 v641q-74 7 -205 7q-44 0 -70 -0.5t-59.5 -3.5t-52.5 -9t-41.5 -16t-34.5 -25.5t-23 -37.5t-15.5 -52t-4.5 -69v-232q0 -39 4.5 -69t15.5 -52t23 -37.5t34.5 -25.5t41.5 -16t52.5 -9t59.5 -3.5t70 -0.5q85 0 203 10l-54 -98q-2 -3 -3 -5t-2 -3.5t-2.5 -3l-2.5 -2.5t-2.5 -1.5 t-2.5 -1t-3 -1t-3.5 -0.5t-5 -1t-5.5 -1q-58 -11 -117 -11q-57 0 -87 1t-83 7t-83 17.5t-68.5 35.5t-59 58t-35 86.5t-14.5 120.5v244q0 68 14.5 120.5t34.5 86.5t58.5 57.5t68.5 35t82.5 17.5t82.5 7t87 1h2q205 0 307 -10q15 -2 21 -7t6 -20v-735q52 0 86 1.5t73 6.5 t63.5 14t48.5 25.5t37.5 40t21.5 57.5t8 78v502q0 81 -17 136t-61.5 101t-124.5 72t-203 40t-299 14q-175 0 -304.5 -25.5t-209.5 -69t-128 -110t-65.5 -139t-17.5 -166.5v-496q0 -94 17.5 -166t65.5 -138.5t128 -109.5t209.5 -68.5t304.5 -25.5q64 0 156.5 2.5t152.5 4.5 l60 3q15 0 20.5 -5.5t5.5 -20.5v-66q0 -26 -26 -26q-226 -11 -369 -11q-442 0 -648 154t-206 459z" />
<glyph unicode="A" horiz-adv-x="1292" d="M133 27v1036q0 115 29 189.5t95.5 116t158 57.5t233.5 16q114 0 193 -10t142.5 -34.5t100 -68t55.5 -108.5t19 -158v-1036q0 -15 -5.5 -21t-20.5 -6h-80q-15 0 -21 6t-6 21v551h-760v-551q0 -15 -5.5 -21t-20.5 -6h-80q-15 0 -21 6t-6 21zM266 700h760v363 q0 78 -16.5 125.5t-61 77.5t-115 41.5t-186.5 11.5q-117 0 -188 -11.5t-115.5 -41.5t-61 -77.5t-16.5 -125.5v-363z" />
<glyph unicode="B" horiz-adv-x="1261" d="M156 33v1364q0 19 6.5 26t25.5 7h424q123 0 203.5 -8t149.5 -29.5t107 -62t58.5 -103.5t20.5 -156v-45q0 -56 -12.5 -102t-33 -75t-44.5 -51.5t-48.5 -33.5t-45 -17.5t-33.5 -8.5l-12 -1q5 0 14.5 -1t35.5 -8t50 -17.5t53.5 -33.5t50.5 -52.5t35.5 -77.5t14.5 -107v-82 q0 -66 -10.5 -117t-29.5 -89t-52.5 -64.5t-74 -44t-99.5 -27t-122.5 -13t-150.5 -3.5h-449q-19 0 -25.5 7t-6.5 26zM289 123h348q85 0 142 3.5t105.5 13t76.5 25.5t47.5 43t26.5 62.5t7 87.5v45q0 77 -12 122.5t-50 80.5t-109 48.5t-187 13.5h-395v-545zM289 786h370 q93 0 156.5 10.5t104 29t62 53t29 75t7.5 101.5v16q0 62 -12 102t-37.5 67.5t-75.5 41.5t-114.5 19.5t-166.5 5.5h-323v-521z" />
<glyph unicode="C" horiz-adv-x="1103" d="M117 373v686q0 93 20 158t59 108.5t106 68t150 34.5t203 10q73 0 158.5 -3t134.5 -5l49 -3q16 -2 21.5 -7t5.5 -19v-70q0 -15 -6 -20.5t-21 -5.5q-1 0 -21.5 1t-53.5 2.5t-74 3t-93 2.5t-100 1q-124 0 -199.5 -11.5t-123 -41.5t-65 -77.5t-17.5 -125.5v-686 q0 -78 17.5 -125.5t65 -77.5t123 -41.5t199.5 -11.5q51 0 139 3t155 6l67 3q15 0 20.5 -6t5.5 -21v-69q0 -15 -5.5 -20t-20.5 -7q-238 -12 -361 -12q-120 0 -203 10t-150 34.5t-106 68t-59 108.5t-20 158z" />
<glyph unicode="D" horiz-adv-x="1298" d="M156 27v1376q0 15 5.5 21t20.5 6h461q120 0 203 -10t150.5 -34.5t106.5 -68t59 -108.5t20 -158v-672q0 -93 -20 -158t-59 -108.5t-106.5 -68t-150.5 -34.5t-203 -10h-461q-15 0 -20.5 6t-5.5 21zM289 123h354q124 0 200 11.5t123.5 41.5t65 77.5t17.5 125.5v672 q0 78 -17.5 125.5t-65 77.5t-123.5 41.5t-200 11.5h-354v-1184z" />
<glyph unicode="E" horiz-adv-x="1120" d="M145 281v1122q0 15 6 21t21 6h827q15 0 21 -6t6 -21v-70q0 -15 -6 -20.5t-21 -5.5h-720v-519h677q15 0 21 -5.5t6 -20.5v-70q0 -15 -6 -20.5t-21 -5.5h-677v-387q0 -98 28.5 -127t126.5 -29h582q15 0 20.5 -6t5.5 -21v-69q0 -15 -5.5 -21t-20.5 -6h-588q-160 0 -221.5 61 t-61.5 220z" />
<glyph unicode="F" horiz-adv-x="1075" d="M156 27v1376q0 15 5.5 21t20.5 6h813q15 0 21 -6t6 -21v-70q0 -15 -6 -20.5t-21 -5.5h-706v-537h663q15 0 21 -6t6 -21v-69q0 -15 -6 -21t-21 -6h-663v-620q0 -15 -6 -21t-21 -6h-80q-15 0 -20.5 6t-5.5 21z" />
<glyph unicode="G" horiz-adv-x="1251" d="M117 373v682q0 93 20 158t59 108.5t106 68t150 34.5t203 10q73 0 174.5 -3t166.5 -5l65 -3q15 -2 20.5 -6.5t5.5 -19.5v-70q0 -15 -5.5 -21t-20.5 -6q-1 0 -28 1t-69.5 3t-93 3.5t-109 2.5t-106.5 1q-124 0 -199.5 -11.5t-123 -41.5t-65 -77.5t-17.5 -125.5v-682 q0 -78 17.5 -125.5t65 -77.5t123 -41.5t199.5 -11.5q55 0 139.5 4t141.5 8l57 4l-53 -102q-7 -13 -12.5 -16t-20.5 -5q-193 -16 -252 -16q-120 0 -203 10t-150 34.5t-106 68t-59 108.5t-20 158zM995 133v547q0 15 6 21t21 6h80q15 0 20.5 -6t5.5 -21v-653q0 -15 -5.5 -21 t-20.5 -6h-25q-14 0 -19 3t-11 15z" />
<glyph unicode="H" horiz-adv-x="1341" d="M156 27v1376q0 15 5.5 21t20.5 6h80q15 0 21 -6t6 -21v-615h764v615q0 15 5.5 21t20.5 6h80q15 0 21 -6t6 -21v-1376q0 -15 -6 -21t-21 -6h-80q-15 0 -20.5 6t-5.5 21v639h-764v-639q0 -15 -6 -21t-21 -6h-80q-15 0 -20.5 6t-5.5 21z" />
<glyph unicode="I" horiz-adv-x="444" d="M156 27v1376q0 15 5.5 21t20.5 6h80q15 0 21 -6t6 -21v-1376q0 -15 -6 -21t-21 -6h-80q-15 0 -20.5 6t-5.5 21z" />
<glyph unicode="J" horiz-adv-x="974" d="M55 27v69q0 15 6 21t21 6l38 -2q39 -2 98 -4t110 -2q117 0 188 11.5t115.5 41.5t61 77.5t16.5 125.5v936h-568q-15 0 -20.5 5.5t-5.5 20.5v70q0 15 5.5 21t20.5 6h674q15 0 21 -6t6 -21v-1032q0 -115 -29 -189.5t-95.5 -116t-158 -57.5t-233.5 -16q-54 0 -115 2t-95 4 l-34 2q-15 2 -21 7t-6 20z" />
<glyph unicode="K" horiz-adv-x="1243" d="M156 27v1376q0 15 5.5 21t20.5 6h80q15 0 21 -6t6 -21v-615h293l448 615q20 27 41 27h100q19 0 19 -15q0 -7 -25 -43l-473 -637l504 -678q25 -36 25 -43q0 -14 -19 -14h-106q-21 0 -41 27l-471 639h-295v-639q0 -15 -6 -21t-21 -6h-80q-15 0 -20.5 6t-5.5 21z" />
<glyph unicode="L" horiz-adv-x="1003" d="M156 27v1376q0 15 5.5 21t20.5 6h80q15 0 21 -6t6 -21v-1280h655q15 0 21 -6t6 -21v-69q0 -15 -6 -21t-21 -6h-762q-15 0 -20.5 6t-5.5 21z" />
<glyph unicode="M" horiz-adv-x="1581" d="M156 27v1376q0 15 5.5 21t20.5 6h125q19 0 27 -4.5t18 -24.5l449 -783l436 783q10 20 18 24.5t27 4.5h117q15 0 20.5 -6t5.5 -21v-1376q0 -15 -5.5 -21t-20.5 -6h-78q-15 0 -21 6t-6 21v1230l-403 -720q-10 -20 -18 -24.5t-27 -4.5h-103q-19 0 -27 4.5t-18 24.5l-413 720 v-1230q0 -15 -6 -21t-21 -6h-76q-15 0 -20.5 6t-5.5 21z" />
<glyph unicode="N" horiz-adv-x="1378" d="M156 27v1376q0 15 5.5 21t20.5 6h88q18 0 25.5 -5t19.5 -24l781 -1200v1202q0 15 5.5 21t20.5 6h74q15 0 21 -6t6 -21v-1376q0 -15 -6 -21t-21 -6h-88q-18 0 -25.5 5t-19.5 24l-780 1204v-1206q0 -15 -6 -21t-21 -6h-74q-15 0 -20.5 6t-5.5 21z" />
<glyph unicode="O" horiz-adv-x="1323" d="M117 360v709q0 93 20.5 158t59.5 108.5t107 68t152 34.5t206 10t206 -10t152 -34.5t107 -68t59 -108.5t20 -158v-709q0 -116 -29.5 -189.5t-99 -115.5t-166 -57.5t-249.5 -15.5q-122 0 -206 10t-152 34t-107 67.5t-59.5 108.5t-20.5 158zM250 360q0 -78 17.5 -125.5 t66 -77.5t125.5 -41.5t203 -11.5t203 11.5t125 41.5t65.5 77.5t17.5 125.5v709q0 78 -17.5 125.5t-65.5 77.5t-125 41.5t-203 11.5t-203 -11.5t-125.5 -41.5t-66 -77.5t-17.5 -125.5v-709z" />
<glyph unicode="P" horiz-adv-x="1204" d="M156 27v1376q0 15 5.5 21t20.5 6h443q119 0 200.5 -10t145.5 -34.5t100 -68t54 -108t18 -158.5v-129q0 -94 -18 -158.5t-54 -108t-100 -68t-145.5 -34.5t-200.5 -10h-336v-516q0 -15 -6 -21t-21 -6h-80q-15 0 -20.5 6t-5.5 21zM289 666h336q124 0 196.5 11t116 42 t58 77.5t14.5 125.5v129q0 79 -14.5 125.5t-58 77.5t-116 42t-196.5 11h-336v-641z" />
<glyph unicode="Q" horiz-adv-x="1323" d="M117 360v709q0 93 20.5 158t59.5 108.5t107 68t152 34.5t206 10t206 -10t152 -34.5t107 -68t59 -108.5t20 -158v-709q0 -109 -26.5 -180.5t-87.5 -114t-147 -60.5t-218 -21v-179q0 -15 -6 -20.5t-21 -5.5h-77q-15 0 -21 5.5t-6 20.5v179q-133 3 -219 21t-147 60.5 t-87 114t-26 180.5zM250 360q0 -96 30 -148.5t103.5 -78t212.5 -29.5v177q0 15 6 20.5t21 5.5h77q15 0 21 -5.5t6 -20.5v-177q138 4 211.5 29.5t104 78t30.5 148.5v709q0 78 -17.5 125.5t-65.5 77.5t-125 41.5t-203 11.5t-203 -11.5t-125.5 -41.5t-66 -77.5t-17.5 -125.5 v-709z" />
<glyph unicode="R" horiz-adv-x="1247" d="M156 27v1376q0 15 5.5 21t20.5 6h455q119 0 200.5 -10t145.5 -34.5t100 -68t54 -108t18 -158.5v-109q0 -165 -57 -246t-191 -110l230 -502q24 -50 24 -66q0 -18 -26 -18h-80q-27 0 -39 27l-246 540q-41 -4 -133 -4h-348v-536q0 -15 -6 -21t-21 -6h-80q-15 0 -20.5 6 t-5.5 21zM289 686h348q124 0 196.5 11t116 42t58 77.5t14.5 125.5v109q0 79 -14.5 125.5t-58 77.5t-116 42t-196.5 11h-348v-621z" />
<glyph unicode="S" horiz-adv-x="1114" d="M88 1040v39q0 89 18 150.5t54 103t100 64.5t145 32t201 9q73 0 151 -3t119 -5l42 -3q15 -2 20.5 -6.5t5.5 -19.5v-70q0 -15 -5.5 -20.5t-20.5 -5.5q-1 0 -18 1t-46 2.5t-65.5 3t-85.5 2.5t-97 1q-124 0 -196.5 -10t-116 -38.5t-58 -71.5t-14.5 -116v-35q0 -38 7 -64 t17 -44t36 -33.5t49.5 -26t72.5 -28.5l367 -137q42 -16 67 -26.5t59.5 -29.5t54 -40t39 -51.5t28 -71t8.5 -91.5v-49q0 -89 -18 -150.5t-54 -102.5t-100 -64t-145 -32t-201 -9q-73 0 -166 3.5t-150 6.5l-57 4q-15 2 -20.5 7t-5.5 20v69q0 15 5.5 21t20.5 6q1 0 24.5 -1.5 t61.5 -3.5t83 -4t100.5 -3.5t103.5 -1.5q99 0 164 7t110 22t68.5 43.5t33 66t9.5 96.5v45q0 38 -6.5 64t-17 44t-36 34t-50 26.5t-72.5 28.5l-367 137q-43 16 -67.5 26.5t-59 29.5t-54 40t-39 51t-28 70.5t-8.5 91.5z" />
<glyph unicode="T" horiz-adv-x="1116" d="M31 1333v70q0 15 5.5 21t20.5 6h1002q15 0 20.5 -6t5.5 -21v-70q0 -15 -5.5 -20.5t-20.5 -5.5h-434v-1280q0 -15 -6 -21t-21 -6h-80q-15 0 -20.5 6t-5.5 21v1280h-435q-15 0 -20.5 5.5t-5.5 20.5z" />
<glyph unicode="U" horiz-adv-x="1292" d="M133 360v1043q0 15 6 21t21 6h80q15 0 20.5 -6t5.5 -21v-1043q0 -78 16.5 -125.5t61 -77.5t115 -41.5t186.5 -11.5q117 0 188 11.5t115.5 41.5t61 77.5t16.5 125.5v1043q0 15 6 21t21 6h80q15 0 20.5 -6t5.5 -21v-1043q0 -115 -29 -189t-95.5 -116t-158 -57.5 t-233.5 -15.5q-114 0 -193 10t-142.5 34t-100 67.5t-55.5 108.5t-19 158z" />
<glyph unicode="V" horiz-adv-x="1294" d="M51 1409q0 21 23 21h90q15 0 21 -5t10 -22l288 -1114q17 -64 29 -97t32 -50t38.5 -20t60.5 -3h12q42 0 60.5 3t38.5 20t32 50t29 97l289 1114q4 17 10 22t21 5h86q22 0 22 -21l-12 -53l-281 -1067q-17 -67 -27.5 -101.5t-27.5 -74t-34 -57t-45.5 -34t-64 -21.5t-87.5 -5 h-33q-39 0 -68.5 3t-54 11.5t-42 18t-33 29.5t-26 38t-22.5 52t-20 62.5t-21 78.5l-281 1067q-12 43 -12 53z" />
<glyph unicode="W" horiz-adv-x="1781" d="M57 1409q0 21 23 21h86q16 0 22 -5t9 -22l198 -1114q8 -42 15.5 -71t19 -48t20.5 -29t28 -15t33.5 -6t43.5 -1h109q81 0 121 32t40 130v1101q0 15 6 21t21 6h80q15 0 20.5 -6t5.5 -21v-1101q0 -97 40.5 -129.5t121.5 -32.5h109q29 0 43.5 1t33.5 6t28 15t20.5 29t19 48 t15.5 71l198 1114q3 17 9 22t22 5h84q22 0 22 -21l-8 -53l-190 -1067q-16 -92 -33.5 -143.5t-49.5 -88t-79 -49t-125 -12.5h-141q-50 0 -89.5 13t-60.5 32t-35 37.5t-18 31.5l-4 13q-1 -5 -4 -13.5t-17.5 -30.5t-35 -39t-60 -30.5t-88.5 -13.5h-143q-78 0 -125 12.5t-79 49 t-49.5 88t-33.5 143.5l-190 1067q-9 43 -9 53z" />
<glyph unicode="X" horiz-adv-x="1189" d="M37 14q0 12 22 43l455 664l-444 651q-23 33 -23 43q0 15 19 15h104q23 0 41 -27l383 -572l389 572q18 27 41 27h92q19 0 19 -15q0 -10 -23 -43l-442 -645l460 -670q23 -33 23 -43q0 -14 -18 -14h-105q-23 0 -41 27l-399 591l-402 -591q-18 -27 -41 -27h-92q-18 0 -18 14z " />
<glyph unicode="Y" horiz-adv-x="1249" d="M31 1409q0 21 22 21h99q14 0 19 -4.5t13 -22.5l262 -608q21 -49 29 -67.5t22.5 -43t20 -29.5t22.5 -12.5t29 -7.5h41h33h41t29 7.5t22.5 12.5t20 29.5t22.5 43t29 67.5l262 608q8 18 13 22.5t20 4.5h94q23 0 23 -21q0 -4 -5.5 -17.5t-11.5 -24.5l-6 -11l-252 -561 q-12 -27 -29 -67.5t-25.5 -59t-22 -46t-23.5 -39t-25.5 -27.5t-33 -23t-40.5 -13t-53 -8v-485q0 -15 -5.5 -21t-20.5 -6h-80q-15 0 -21 6t-6 21v485q-30 2 -53.5 7.5t-41 12.5t-33.5 23t-26 28t-23.5 39.5t-22 46t-25.5 59t-29 67.5l-252 561q-22 43 -22 53z" />
<glyph unicode="Z" horiz-adv-x="1144" d="M82 27v43q0 30 14 51l783 1186h-760q-15 0 -21 5.5t-6 20.5v70q0 15 6 21t21 6h897q15 0 20.5 -6t5.5 -21v-47q0 -30 -14 -51l-776 -1182h784q15 0 21 -6t6 -21v-69q0 -15 -6 -21t-21 -6h-927q-15 0 -21 6t-6 21z" />
<glyph unicode="[" horiz-adv-x="677" d="M164 -301v1716q0 15 5.5 21t20.5 6h359q15 0 20.5 -6t5.5 -21v-65q0 -15 -5.5 -21t-20.5 -6h-256v-1532h256q15 0 20.5 -6t5.5 -21v-65q0 -15 -5.5 -21t-20.5 -6h-359q-15 0 -20.5 6t-5.5 21z" />
<glyph unicode="\" horiz-adv-x="575" d="M0 1421q0 21 23 21h61q15 0 21 -5t10 -22l448 -1669q12 -43 12 -53q0 -21 -22 -21h-61q-15 0 -21 5t-10 22l-449 1669q-12 43 -12 53z" />
<glyph unicode="]" horiz-adv-x="677" d="M102 -236q0 15 6 21t21 6h256v1532h-256q-15 0 -21 6t-6 21v65q0 15 6 21t21 6h358q15 0 21 -6t6 -21v-1716q0 -15 -6 -21t-21 -6h-358q-15 0 -21 6t-6 21v65z" />
<glyph unicode="^" horiz-adv-x="1142" d="M72 739q0 8 24 54l379 673q9 17 17 22t24 5h113q16 0 24 -5t17 -22l377 -673q24 -46 24 -54q0 -14 -18 -14h-92q-16 0 -24 5t-17 22l-351 649l-350 -649q-9 -17 -17 -22t-24 -5h-88q-18 0 -18 14z" />
<glyph unicode="_" horiz-adv-x="942" d="M51 -55q0 15 6 20.5t21 5.5h786q15 0 21 -5.5t6 -20.5v-76q0 -15 -6 -21t-21 -6h-786q-15 0 -21 6t-6 21v76z" />
<glyph unicode="`" horiz-adv-x="477" d="M82 1477q0 16 18 16h127q14 0 20.5 -5.5t16.5 -21.5l107 -182q24 -46 24 -53q0 -14 -18 -14h-82q-14 0 -21.5 5.5t-19.5 20.5l-141 182q-31 44 -31 52z" />
<glyph unicode="a" horiz-adv-x="1044" d="M98 236v53q0 54 8.5 87t37.5 65.5t83 58.5t146 55l399 127v61q0 36 -2 61.5t-10 47t-16.5 34.5t-29 23t-38.5 15t-54.5 8t-68.5 3.5t-88 0.5q-58 0 -127 -3t-108 -6l-40 -3q-15 0 -20.5 5.5t-5.5 20.5v66q0 14 6 19t20 7q146 13 275 13q72 0 106.5 -1t91 -6t83.5 -16.5 t63 -32.5t52 -53t28 -79.5t12 -110.5v-729q0 -15 -6 -21t-21 -6h-20q-14 0 -19.5 3t-11.5 15l-51 103v446l-418 -135q-76 -24 -102.5 -54t-26.5 -87v-55q0 -89 55 -108t236 -19q113 0 254 12l-51 -92q-7 -13 -12.5 -16t-20.5 -5q-110 -12 -186 -12q-47 0 -74 0.5t-67.5 2.5 t-64 6.5t-55 13t-49.5 20.5t-38 30t-30 41.5t-17 55t-7 70.5z" />
<glyph unicode="b" horiz-adv-x="1105" d="M150 33v1382q0 15 5.5 21t20.5 6h76q15 0 21 -6t6 -21v-1292q139 -6 270 -6q51 0 80 1t66.5 5t58 12.5t43 23.5t33.5 38t18.5 56t7.5 77v393q0 44 -7.5 77t-18.5 56t-33.5 38t-43 23.5t-58 12.5t-66.5 5t-80 1q-57 0 -124 -2.5t-105 -5.5l-39 -2l53 98q5 9 9 13t8 5t16 2 q123 11 182 11q57 0 87.5 -1t84 -7t84 -17.5t70 -35.5t60 -58t35.5 -86.5t15 -120.5v-405q0 -68 -15 -120.5t-35.5 -86.5t-60 -58t-70 -35.5t-84 -17.5t-84 -7t-87.5 -1q-97 0 -190.5 2t-138.5 4l-44 2q-15 0 -20.5 6t-5.5 21z" />
<glyph unicode="c" horiz-adv-x="940" d="M121 319v414q0 68 15 120.5t35.5 86.5t60 58t70 35.5t84 17.5t84 7t87.5 1q64 0 129.5 -2.5t99.5 -4.5l33 -3q27 0 27 -27v-66q0 -15 -6 -20.5t-21 -5.5q-117 10 -262 10q-51 0 -80 -1t-66.5 -5t-58 -12.5t-43 -23.5t-33.5 -38t-18.5 -56t-7.5 -77v-401q0 -44 7.5 -77 t18.5 -56t33.5 -38t43 -23.5t58 -12.5t66.5 -5t80 -1q64 0 130.5 2.5t100.5 4.5l35 3q15 0 21 -6t6 -21v-65q0 -27 -27 -27q-123 -10 -266 -10q-162 0 -234 19q-161 43 -193 209q-9 44 -9 97z" />
<glyph unicode="d" horiz-adv-x="1105" d="M121 322v405q0 68 15 120.5t35.5 86.5t60 58t70 35.5t84 17.5t84 7t87.5 1q59 0 270 -9v371q0 15 6 21t21 6h76q15 0 20.5 -6t5.5 -21v-1388q0 -15 -5.5 -21t-20.5 -6h-21q-14 0 -19 3t-11 15l-52 107v803q-139 6 -270 6q-51 0 -80 -1t-66.5 -5t-58 -12.5t-43 -23.5 t-33.5 -38t-18.5 -56t-7.5 -77v-393q0 -44 7.5 -77t18.5 -56t33.5 -38t43 -23.5t58 -12.5t66.5 -5t80 -1q57 0 124 2.5t105 4.5l39 3l-53 -98q-7 -13 -12.5 -16t-20.5 -5q-123 -10 -182 -10q-57 0 -87.5 1t-84 7t-84 17.5t-70 35.5t-60 58t-35.5 86.5t-15 120.5z" />
<glyph unicode="e" horiz-adv-x="1036" d="M121 322v411q0 78 17.5 137t54 93t70.5 55t91.5 29t90 10t90.5 2q70 0 109.5 -2t106 -19t103 -49t65.5 -97.5t29 -158.5v-248q0 -15 -5.5 -20.5t-20.5 -5.5h-672v-131q0 -44 8 -77t19.5 -55.5t34 -38t42 -24t54 -12.5t59.5 -5t68 -1q64 0 151.5 2.5t143.5 4.5l55 3 q15 0 20.5 -6t5.5 -21v-65q0 -27 -26 -27q-207 -10 -350 -10q-58 0 -90.5 2t-90 10t-91.5 29t-70.5 55t-54 93t-17.5 137zM250 578h569v149q0 44 -7.5 77t-19 55.5t-34 38t-42 24t-54 12.5t-59.5 5t-68 1t-68 -1t-59.5 -5t-54 -12.5t-42 -24t-34 -38t-19.5 -55.5t-8 -77 v-149z" />
<glyph unicode="f" horiz-adv-x="630" d="M150 27v1124q0 161 67.5 228t228.5 67h21q52 0 70 -2q19 -2 25.5 -8t6.5 -25v-61q0 -15 -5.5 -21t-20.5 -6h-92q-100 0 -136 -36t-36 -136v-100h258q15 0 20.5 -6t5.5 -21v-66q0 -15 -5.5 -20.5t-20.5 -5.5h-258v-905q0 -15 -6 -21t-21 -6h-76q-15 0 -20.5 6t-5.5 21z " />
<glyph unicode="g" horiz-adv-x="1046" d="M61 -147q0 60 19 108t45.5 74.5t53.5 44.5t46 24l19 5q-2 1 -5.5 3t-13 13.5t-16.5 28.5t-13 51.5t-6 79.5q0 25 13 51l28 55q-62 25 -105.5 97.5t-43.5 191.5v51q0 92 27 155.5t61.5 95t99.5 48t106.5 19t117.5 2.5h462q15 0 21 -6t6 -21v-57q0 -15 -6 -21t-21 -6 l-135 4l70 -127q12 -24 12 -55v-82q0 -92 -26 -155.5t-59.5 -95t-96.5 -48t-102.5 -19t-112.5 -2.5q-136 0 -191 7v-72q0 -62 19 -88t84 -39l350 -76q129 -29 178 -86t49 -176v-27q0 -72 -16.5 -121.5t-49 -82t-91 -50t-129.5 -24t-179 -6.5q-267 0 -368 59t-101 229v46z M193 -141v-45q0 -73 27.5 -109t98 -51.5t211.5 -15.5q75 0 124 2.5t89 10t62 19t36.5 32.5t19.5 47t5 65v16q0 62 -35.5 97t-123.5 55l-340 73q-7 -1 -19 -3.5t-42 -15.5t-52.5 -32t-41.5 -57.5t-19 -87.5zM207 686q0 -34 4 -61.5t10.5 -48.5t19.5 -37t24.5 -27t33 -18.5 t38.5 -11.5t46 -6t51 -2.5t58 -0.5q47 0 73.5 1t61.5 5t54 12.5t40.5 24t32 38t17.5 55.5t7 77v39q0 44 -7 77t-17.5 55.5t-32 38t-40.5 24t-54 12.5t-61.5 5t-73.5 1q-36 0 -58 -0.5t-51 -2.5t-46 -6t-38.5 -11.5t-33 -18.5t-24.5 -27t-19.5 -37t-10.5 -48.5t-4 -61.5v-39z " />
<glyph unicode="h" horiz-adv-x="1097" d="M150 27v1388q0 15 5.5 21t20.5 6h76q15 0 21 -6t6 -21v-1388q0 -15 -6 -21t-21 -6h-76q-15 0 -20.5 6t-5.5 21zM281 926l53 98q5 9 9.5 13t8.5 5t15 2q98 11 157 11q57 0 87.5 -1t84 -7t84 -17.5t70 -35.5t60.5 -58t36 -86.5t15 -120.5v-702q0 -15 -6 -21t-21 -6h-76 q-15 0 -21 6t-6 21v696q0 44 -7.5 77t-18.5 56t-33.5 38t-43 23.5t-58 12.5t-66.5 5t-80 1q-126 0 -243 -10z" />
<glyph unicode="i" horiz-adv-x="571" d="M70 958v66q0 15 5.5 21t20.5 6h299q15 0 21 -6t6 -21v-997q0 -15 -6 -21t-21 -6h-76q-15 0 -20.5 6t-5.5 21v905h-197q-15 0 -20.5 5.5t-5.5 20.5zM221 1313v121q0 15 6 20.5t21 5.5h147q15 0 21 -5.5t6 -20.5v-121q0 -15 -6 -21t-21 -6h-147q-15 0 -21 6t-6 21z" />
<glyph unicode="j" horiz-adv-x="571" d="M20 -248q0 15 6 21t21 6h74q100 0 136 36t36 136v981h-197q-15 0 -20.5 5.5t-5.5 20.5v66q0 15 5.5 21t20.5 6h299q15 0 21 -6t6 -21v-1073q0 -161 -67.5 -228t-229.5 -67h-21q-33 0 -51 2q-19 2 -26 8.5t-7 24.5v61zM221 1313v121q0 15 6 20.5t21 5.5h147q15 0 21 -5.5 t6 -20.5v-121q0 -15 -6 -21t-21 -6h-147q-15 0 -21 6t-6 21z" />
<glyph unicode="k" horiz-adv-x="1040" d="M150 27v1388q0 15 5.5 21t20.5 6h76q15 0 21 -6t6 -21v-782h176l331 391q20 27 41 27h105q18 0 18 -15q0 -5 -3.5 -10.5t-13 -16.5t-13.5 -16l-357 -415l402 -512q32 -46 32 -52q0 -14 -18 -14h-107q-21 0 -41 27l-376 487h-176v-487q0 -15 -6 -21t-21 -6h-76 q-15 0 -20.5 6t-5.5 21z" />
<glyph unicode="l" horiz-adv-x="595" d="M143 287v1128q0 15 6 21t21 6h76q15 0 20.5 -6t5.5 -21v-1128q0 -100 36 -136t136 -36h74q15 0 21 -6t6 -21v-61q0 -18 -7 -24.5t-26 -8.5l-51 -2h-21q-162 0 -229.5 67t-67.5 228z" />
<glyph unicode="m" horiz-adv-x="1714" d="M150 27v997q0 15 5.5 21t20.5 6h21q13 0 18.5 -3.5t11.5 -15.5l52 -106v-899q0 -15 -6 -21t-21 -6h-76q-15 0 -20.5 6t-5.5 21zM281 926l53 98q5 9 9 13t8 5t16 2q74 11 133 11q57 0 87.5 -1t84 -7t84 -17.5t70 -35.5t60 -58t35.5 -86.5t15 -120.5v-702q0 -15 -6 -21 t-21 -6h-75q-15 0 -21 6t-6 21v696q0 44 -7.5 77t-18.5 56t-33.5 38t-43 23.5t-58 12.5t-66.5 5t-80 1q-102 0 -219 -10zM891 926l53 98q5 9 9 13t8 5t16 2q105 11 164 11q57 0 87.5 -1t84 -7t84 -17.5t70 -35.5t60 -58t35.5 -86.5t15 -120.5v-702q0 -15 -6 -21t-21 -6h-75 q-15 0 -21 6t-6 21v696q0 44 -7.5 77t-18.5 56t-33.5 38t-43 23.5t-58 12.5t-66.5 5t-80 1q-133 0 -250 -10z" />
<glyph unicode="n" horiz-adv-x="1097" d="M150 27v997q0 15 5.5 21t20.5 6h21q13 0 18.5 -3.5t11.5 -15.5l52 -106v-899q0 -15 -6 -21t-21 -6h-76q-15 0 -20.5 6t-5.5 21zM281 926l53 98q5 9 9 13t8 5t16 2q98 11 157 11q57 0 87.5 -1t84 -7t84 -17.5t70 -35.5t60.5 -58t36 -86.5t15 -120.5v-702q0 -15 -6 -21 t-21 -6h-76q-15 0 -21 6t-6 21v696q0 44 -7.5 77t-18.5 56t-33.5 38t-43 23.5t-58 12.5t-66.5 5t-80 1q-126 0 -243 -10z" />
<glyph unicode="o" horiz-adv-x="1114" d="M121 315v418q0 68 15 120.5t35.5 86.5t60 58t70 35.5t84 17.5t84 7t87.5 1t87.5 -1t84 -7t84 -17.5t70 -35.5t60 -58t35.5 -86.5t15 -120.5v-418q0 -68 -15 -120.5t-35.5 -86.5t-59.5 -57.5t-69.5 -35t-84 -17.5t-83.5 -7t-87 -1h-2q-162 0 -234 19q-161 43 -193 209 q-9 44 -9 97zM250 322q0 -44 7.5 -77t18.5 -56t33.5 -38t43 -23.5t58 -12.5t66.5 -5t80 -1t80 1t66.5 5t58 12.5t43 23.5t33.5 38t18.5 56t7.5 77v405q0 44 -7.5 77t-18.5 56t-33.5 38t-43 23.5t-58 12.5t-66.5 5t-80 1t-80 -1t-66.5 -5t-58 -12.5t-43 -23.5t-33.5 -38 t-18.5 -56t-7.5 -77v-405z" />
<glyph unicode="p" horiz-adv-x="1105" d="M150 -301v1325q0 15 5.5 21t20.5 6h21q13 0 18.5 -3.5t11.5 -15.5l52 -106v-803q139 -6 270 -6q51 0 80 1t66.5 5t58 12.5t43 23.5t33.5 38t18.5 56t7.5 77v393q0 44 -7.5 77t-18.5 56t-33.5 38t-43 23.5t-58 12.5t-66.5 5t-80 1q-57 0 -124 -2.5t-105 -5.5l-39 -2l53 98 q5 9 9 13t8 5t16 2q123 11 182 11q57 0 87.5 -1t84 -7t84 -17.5t70 -35.5t60 -58t35.5 -86.5t15 -120.5v-405q0 -68 -15 -120.5t-35.5 -86.5t-60 -58t-70 -35.5t-84 -17.5t-84 -7t-87.5 -1q-82 0 -270 8v-307q0 -15 -6 -21t-21 -6h-76q-15 0 -20.5 6t-5.5 21z" />
<glyph unicode="q" horiz-adv-x="1105" d="M121 322v405q0 68 15 120.5t35.5 86.5t60 58t70 35.5t84 17.5t84 7t87.5 1q97 0 190.5 -2.5t138.5 -4.5l44 -2q15 0 20.5 -5.5t5.5 -20.5v-1319q0 -15 -5.5 -21t-20.5 -6h-76q-15 0 -21 6t-6 21v1229q-139 6 -270 6q-51 0 -80 -1t-66.5 -5t-58 -12.5t-43 -23.5t-33.5 -38 t-18.5 -56t-7.5 -77v-393q0 -44 7.5 -77t18.5 -56t33.5 -38t43 -23.5t58 -12.5t66.5 -5t80 -1q57 0 124 2.5t105 4.5l39 3l-53 -98q-7 -13 -12.5 -16t-20.5 -5q-123 -10 -182 -10q-57 0 -87.5 1t-84 7t-84 17.5t-70 35.5t-60 58t-35.5 86.5t-15 120.5z" />
<glyph unicode="r" horiz-adv-x="698" d="M150 27v997q0 15 5.5 21t20.5 6h21q13 0 18.5 -3.5t11.5 -15.5l52 -114v-891q0 -15 -6 -21t-21 -6h-76q-15 0 -20.5 6t-5.5 21zM281 918l53 106q5 9 9 13t8 5t16 2q84 7 143 7h121q15 0 20.5 -6t5.5 -21v-78q0 -15 -6 -20.5t-20 -5.5q-89 4 -142 4q-137 0 -208 -6z" />
<glyph unicode="s" horiz-adv-x="927" d="M82 774v23q0 63 17 110t54 74.5t71 44.5t95 23.5t96.5 8t102.5 1.5q64 0 125.5 -2.5t90.5 -4.5l30 -3q24 -3 24 -27v-66q0 -15 -5 -20.5t-19 -5.5q-99 10 -246 10q-159 0 -210 -13q-77 -20 -92 -88q-5 -21 -5 -48v-17q0 -55 29.5 -82t115.5 -57l271 -94 q123 -43 171 -97.5t48 -154.5v-27q0 -64 -17 -112t-54 -76t-71.5 -45.5t-94.5 -24.5t-97 -8.5t-102 -1.5q-64 0 -134.5 2.5t-108.5 5.5l-38 2q-14 2 -20.5 7.5t-6.5 19.5v65q0 15 6 21t21 6q136 -10 281 -10q158 0 209 13q77 20 93 90q5 23 5 52v23q0 53 -29.5 80t-116.5 57 l-270 94q-123 43 -171 97.5t-48 154.5z" />
<glyph unicode="t" horiz-adv-x="708" d="M143 295v938q0 15 6 21t21 6h76q15 0 20.5 -6t5.5 -21v-182h299q15 0 21 -6t6 -21v-66q0 -15 -6 -20.5t-21 -5.5h-299v-637q0 -100 36 -136t136 -36l142 2q15 0 20.5 -6t5.5 -21v-61q0 -19 -6.5 -25t-25.5 -8q-36 -4 -140 -4q-162 0 -229.5 67t-67.5 228z" />
<glyph unicode="u" horiz-adv-x="1097" d="M137 322v702q0 15 6 21t21 6h76q15 0 20.5 -6t5.5 -21v-696q0 -44 7.5 -77t18.5 -56t33.5 -38t43 -23.5t58 -12.5t66.5 -5t80 -1q103 0 244 12l-53 -98q-7 -13 -12.5 -16t-20.5 -5q-99 -12 -158 -12q-57 0 -87.5 1t-84 7t-84 17.5t-70 35.5t-60 58t-35.5 86.5t-15 120.5z M819 127v897q0 15 6 21t21 6h76q15 0 20.5 -6t5.5 -21v-997q0 -15 -5.5 -21t-20.5 -6h-21q-14 0 -19.5 3t-11.5 15z" />
<glyph unicode="v" horiz-adv-x="1095" d="M61 1030q0 21 23 21h84q15 0 21 -5t10 -22l198 -768q14 -54 24.5 -81t29 -41.5t35 -16.5t57.5 -2h14q28 0 40.5 0.5t29 5t24 12.5t17.5 25t17 39.5t17 58.5l199 768q4 17 10 22t21 5h80q22 0 22 -21l-12 -53l-191 -717q-11 -44 -18 -67t-16.5 -53.5t-17.5 -45 t-19.5 -33.5t-24.5 -27t-29.5 -17.5t-38.5 -12.5t-48 -5.5t-60 -2.5h-22q-38 0 -66 2t-52.5 9.5t-40.5 14.5t-31 25.5t-24 33t-20.5 47t-18.5 58.5t-20 74l-190 717q-13 43 -13 53z" />
<glyph unicode="w" horiz-adv-x="1562" d="M70 1030q0 21 22 21h84q15 0 19.5 -4.5t7.5 -22.5l145 -768q10 -53 20 -81.5t30 -42t37 -15.5t59 -2h79q41 0 62.5 3t43.5 15.5t31 40.5t9 74v760q0 15 5.5 20.5t20.5 5.5h76q15 0 21 -5.5t6 -20.5v-760q0 -46 9 -74t31 -40.5t43.5 -15.5t61.5 -3h78q42 0 59 2t37 15.5 t30 42t20 81.5l145 768q3 18 7.5 22.5t19.5 4.5h81q23 0 23 -21l-8 -53l-137 -717q-12 -59 -21.5 -96t-24.5 -69.5t-32 -49t-45.5 -29t-63 -16.5t-86.5 -4h-96q-51 0 -90 11.5t-58.5 28t-31.5 33.5t-15 29l-2 11l-2.5 -12.5t-13.5 -27t-30.5 -34.5t-57.5 -27t-90 -12h-101 q-62 0 -101 7.5t-67.5 22t-47 48t-30.5 74t-26 112.5l-137 717q-8 43 -8 53z" />
<glyph unicode="x" horiz-adv-x="997" d="M51 14q0 7 25 43l346 475l-336 461q-25 36 -25 43q0 15 19 15h96q23 0 41 -27l281 -391l282 391q18 27 41 27h88q19 0 19 -15q0 -7 -25 -43l-332 -456l351 -480q24 -34 24 -43q0 -14 -18 -14h-97q-22 0 -40 27l-297 409l-295 -409q-18 -27 -41 -27h-88q-19 0 -19 14z" />
<glyph unicode="y" horiz-adv-x="1091" d="M131 391v633q0 15 6 21t21 6h75q15 0 21 -6t6 -21v-627q0 -44 7.5 -77t18.5 -56t33.5 -38t43 -23.5t58 -12.5t66.5 -5t80 -1q115 0 244 11l-53 -99q-5 -9 -9 -13t-8 -5t-16 -2q-99 -10 -158 -10q-162 0 -234 19q-161 43 -193 209q-9 44 -9 97zM164 -242q0 15 5.5 21 t20.5 6q193 -10 338 -10q43 0 68 1t59.5 5t54 12.5t42 24t34 38t19.5 55.5t8 77v1036q0 15 6 21t21 6h75q15 0 21 -6t6 -21v-1042q0 -78 -17.5 -137t-54 -93t-70.5 -55t-91.5 -29t-90 -10t-90.5 -2q-81 0 -165.5 2.5t-128.5 5.5l-44 2q-26 0 -26 27v65z" />
<glyph unicode="z" horiz-adv-x="970" d="M80 33v26q0 36 14 56l611 815h-588q-15 0 -21 5.5t-6 20.5v68q0 15 6 21t21 6h721q19 0 25.5 -7t6.5 -26v-31q0 -35 -14 -55l-608 -811h616q15 0 21 -6t6 -21v-67q0 -15 -6 -21t-21 -6h-751q-19 0 -26 7t-7 26z" />
<glyph unicode="{" horiz-adv-x="772" d="M51 500v73q0 15 6 21t21 6h33q75 0 105 54t30 157v307q0 169 87 246.5t257 77.5h53q15 0 21 -6t6 -21v-65q0 -15 -6 -21t-21 -6h-51q-110 0 -163.5 -44.5t-53.5 -166.5v-297q0 -69 -14.5 -123t-34.5 -81t-40.5 -44.5t-35.5 -21.5l-14 -4q3 0 8 -1.5t19.5 -9t27.5 -18 t29 -32t27.5 -48.5t19.5 -69t8 -93v-268q0 -122 53.5 -166.5t163.5 -44.5h51q15 0 21 -6t6 -21v-65q0 -15 -6 -21t-21 -6h-53q-170 0 -257 77.5t-87 246.5v256q0 50 -5.5 87t-19.5 69t-41.5 48.5t-68.5 16.5h-33q-15 0 -21 6t-6 21z" />
<glyph unicode="|" horiz-adv-x="542" d="M217 -301v1716q0 15 6 21t21 6h55q15 0 21 -6t6 -21v-1716q0 -15 -6 -21t-21 -6h-55q-15 0 -21 6t-6 21z" />
<glyph unicode="}" horiz-adv-x="772" d="M102 -236q0 15 6 21t21 6h51q110 0 163.5 44.5t53.5 166.5v256q0 69 14.5 123t35 81t41 44.5t34.5 21.5l15 4q-6 1 -15.5 4t-33.5 20.5t-42.5 43.5t-33.5 80t-15 123v309q0 122 -53.5 166.5t-163.5 44.5h-51q-15 0 -21 6t-6 21v65q0 15 6 21t21 6h53q170 0 257 -77.5 t87 -246.5v-297q0 -105 29 -163t107 -58h32q15 0 21 -6t6 -21v-73q0 -15 -6 -21t-21 -6h-32q-75 0 -105.5 -54t-30.5 -157v-266q0 -169 -87 -246.5t-257 -77.5h-53q-15 0 -21 6t-6 21v65z" />
<glyph unicode="~" horiz-adv-x="919" d="M92 424v49q0 110 50 157.5t143 47.5q39 0 81 -18t78.5 -43.5t70.5 -51t68.5 -43.5t61.5 -18q43 0 55.5 24.5t12.5 79.5v39q0 15 5.5 21t20.5 6h62q15 0 20.5 -6t5.5 -21v-49q0 -110 -49.5 -157.5t-142.5 -47.5q-39 0 -80.5 18t-77 43.5t-69 51t-67.5 43.5t-62 18 q-45 0 -58.5 -24.5t-13.5 -79.5v-39q0 -15 -6 -21t-21 -6h-61q-15 0 -21 6t-6 21z" />
<glyph unicode="&#xa1;" horiz-adv-x="485" d="M137 881v143q0 15 6 21t21 6h158q15 0 20.5 -6t5.5 -21v-143q0 -15 -5.5 -21t-20.5 -6h-158q-15 0 -21 6t-6 21zM170 -365l20 967q0 15 6 21t21 6h55q15 0 21 -6t6 -21l20 -967q0 -15 -5.5 -20.5t-20.5 -5.5h-96q-15 0 -21 5.5t-6 20.5z" />
<glyph unicode="&#xa2;" d="M205 504v414q0 60 11.5 108.5t30 81.5t48 57.5t59 39t70 23t74 11.5t77.5 4v160q0 15 6 21t21 6h76q15 0 21 -6t6 -21v-160l245 -10q27 0 27 -27v-65q0 -15 -6 -21t-21 -6q-164 10 -309 10q-51 0 -80 -1t-66.5 -5t-58 -12.5t-43 -23.5t-33.5 -38t-18.5 -56t-7.5 -77v-401 q0 -44 7.5 -77t18.5 -56t33.5 -38t43 -23.5t58 -12.5t66.5 -5t80 -1q64 0 142.5 2.5t124.5 4.5l46 3q15 0 21 -5.5t6 -20.5v-66q0 -27 -27 -27q-124 -8 -249 -10v-151q0 -15 -6 -21t-21 -6h-76q-15 0 -21 6t-6 21v151q-62 1 -108.5 6.5t-98.5 25.5t-85.5 54t-55.5 95 t-22 145z" />
<glyph unicode="&#xa3;" d="M84 27v69q0 15 6 21t21 6h88q70 0 95 28.5t25 106.5v408h-206q-15 0 -21 5.5t-6 20.5v70q0 15 6 20.5t21 5.5h206v271q0 116 28 189.5t95 116t161.5 58t244.5 15.5l149 -4q15 -2 21 -7t6 -20v-70q0 -15 -6 -20.5t-21 -5.5q-2 0 -26 1t-59 2t-64 1q-164 0 -247 -23 t-115.5 -76t-32.5 -157v-271h471q15 0 20.5 -5.5t5.5 -20.5v-70q0 -15 -5.5 -20.5t-20.5 -5.5h-471v-410q0 -24 -13 -47l-49 -86h733q15 0 21 -6t6 -21v-69q0 -15 -6 -21t-21 -6h-1013q-15 0 -21 6t-6 21z" />
<glyph unicode="&#xa4;" horiz-adv-x="1148" d="M121 217q0 9 24 43l127 174q-55 77 -55 230v131q0 158 59 233l-120 168q-25 36 -25 43q0 14 19 14h100q24 0 41 -26l90 -127q59 20 192 20q134 0 193 -20l92 127q17 26 41 26h92q19 0 19 -14q0 -7 -25 -43l-119 -164q64 -80 64 -237v-131q0 -145 -56 -228l130 -176 q24 -34 24 -43q0 -14 -18 -14h-101q-24 0 -41 26l-96 131q-58 -22 -199 -22q-146 0 -206 24l-95 -133q-17 -26 -41 -26h-92q-18 0 -18 14zM346 670q0 -44 5.5 -77t13.5 -56t25 -38t32 -23.5t43 -12.5t49.5 -5t58.5 -1q33 0 52 0.5t44.5 3.5t40 9t31.5 16t26.5 25.5t18 37.5 t12 52.5t3.5 68.5v118q0 38 -3.5 68.5t-12 52.5t-18 37.5t-26.5 25.5t-31.5 16t-40 9t-44.5 3.5t-52 0.5q-37 0 -58.5 -1t-49.5 -5t-43 -12.5t-32 -23.5t-25 -38t-13.5 -56t-5.5 -77v-118z" />
<glyph unicode="&#xa5;" d="M35 1409q0 21 22 21h97q14 0 19.5 -5.5t12.5 -21.5l234 -567q20 -47 28.5 -67.5t22.5 -43.5t20 -29t23 -13t29 -7h41h32h41t29 7t23 13t20 29t22.5 43.5t28.5 67.5l236 567q6 16 12.5 21.5t20.5 5.5h92q22 0 22 -21q0 -4 -5 -17.5t-10 -24.5l-5 -11l-225 -520 q-11 -25 -26 -61t-22.5 -53.5t-19.5 -43.5t-20.5 -38t-21.5 -28.5t-25.5 -24t-30.5 -16t-39 -12.5t-47 -6v-64h249q15 0 21 -5.5t6 -20.5v-70q0 -15 -6 -20.5t-21 -5.5h-249v-91h249q15 0 21 -5.5t6 -20.5v-70q0 -15 -6 -20.5t-21 -5.5h-249v-127q0 -15 -6 -21t-21 -6h-80 q-15 0 -21 6t-6 21v127h-249q-15 0 -21 5.5t-6 20.5v70q0 15 6 20.5t21 5.5h249v91h-249q-15 0 -21 5.5t-6 20.5v70q0 15 6 20.5t21 5.5h249v64q-27 2 -48 5.5t-39 12t-30.5 15.5t-26 24.5t-21.5 28.5t-20.5 38t-19.5 43.5t-22.5 54t-25.5 61.5l-224 520q-20 43 -20 53z" />
<glyph unicode="&#xa6;" horiz-adv-x="542" d="M217 -301v727q0 15 6 21t21 6h55q15 0 21 -6t6 -21v-727q0 -15 -6 -21t-21 -6h-55q-15 0 -21 6t-6 21zM217 645v770q0 15 6 21t21 6h55q15 0 21 -6t6 -21v-770q0 -15 -6 -21t-21 -6h-55q-15 0 -21 6t-6 21z" />
<glyph unicode="&#xa7;" horiz-adv-x="1087" d="M121 467v197q0 102 36 159t101 88q-46 30 -71 72.5t-25 122.5v49q0 44 9 81t22.5 63.5t38 47.5t46.5 34.5t57.5 23t61.5 14.5t67.5 7.5t66.5 3t67 0.5q64 0 125 -3t90 -5l29 -3q14 -2 20 -7t6 -19v-66q0 -15 -5.5 -21t-20.5 -6q-99 11 -244 11h-63t-54.5 -1.5t-50.5 -4.5 t-40.5 -8.5t-36 -13.5t-26 -20t-21 -28t-11 -37.5t-4.5 -48.5v-49q0 -26 7.5 -45t15.5 -29.5t32 -21t37 -15t51 -14.5l314 -82q95 -26 131 -48q88 -56 88 -194v-188q0 -107 -38.5 -164.5t-107.5 -89.5q50 -30 77.5 -72.5t27.5 -124.5v-57q0 -44 -9 -81t-23 -64t-38 -48.5 t-47 -35.5t-57 -24t-61.5 -15.5t-67 -8.5t-67 -3.5t-67.5 -0.5q-64 0 -136.5 3t-112.5 5l-41 3q-15 2 -21 7t-6 19v66q0 15 6 20.5t21 5.5q145 -10 290 -10q50 0 79.5 1t67 4t58 10t43.5 19t34 30t18.5 44t7.5 60v57q0 26 -7.5 45.5t-16 30.5t-32 21t-38 14.5t-50.5 13.5 l-313 82q-32 8 -46.5 12t-42.5 14.5t-42.5 21t-34 29t-29 40.5t-17 54t-7.5 71zM250 461q0 -26 7.5 -45t15.5 -29.5t32 -21t37 -15t51 -14.5l283 -74q64 0 113 48.5t49 158.5v188q0 26 -7.5 45.5t-16 30.5t-32 21t-38 14.5t-50.5 13.5l-305 80q-19 0 -40.5 -10t-44.5 -31 t-38.5 -64t-15.5 -100v-196z" />
<glyph unicode="&#xa8;" horiz-adv-x="796" d="M82 1313v121q0 15 6 20.5t21 5.5h139q15 0 20.5 -5.5t5.5 -20.5v-121q0 -15 -5.5 -21t-20.5 -6h-139q-15 0 -21 6t-6 21zM522 1313v121q0 15 6 20.5t21 5.5h139q15 0 21 -5.5t6 -20.5v-121q0 -15 -6 -21t-21 -6h-139q-15 0 -21 6t-6 21z" />
<glyph unicode="&#xa9;" horiz-adv-x="1695" d="M143 360v709q0 93 25.5 158t75.5 108.5t137.5 68t197.5 34.5t269 10t269 -10t197.5 -34.5t137 -68t75 -108.5t25.5 -158v-709q0 -93 -25.5 -158t-75 -108.5t-137 -67.5t-197 -34t-269.5 -10t-269.5 10t-197 34t-137.5 67.5t-75.5 108.5t-25.5 158zM262 360 q0 -103 51.5 -159.5t177 -82.5t357.5 -26t357.5 26t177 82.5t51.5 159.5v709q0 103 -51.5 159.5t-177 82.5t-357.5 26t-357.5 -26t-177 -82.5t-51.5 -159.5v-709zM549 530v367q0 117 71.5 159t233.5 42l223 -6q13 0 13 -15v-78q0 -14 -13 -14q-1 0 -15.5 0.5t-38.5 1.5 t-51.5 2t-59.5 1.5t-58 0.5q-65 0 -102 -6t-56.5 -23.5t-24.5 -40t-5 -65.5v-285q0 -43 5 -65.5t24.5 -40t56.5 -23.5t102 -6q26 0 83 1.5t103 2.5l47 2q13 0 13 -14v-78q0 -11 -13 -14q-167 -6 -233 -6q-162 0 -233.5 41.5t-71.5 158.5z" />
<glyph unicode="&#xaa;" horiz-adv-x="794" d="M82 848v43q0 73 40.5 111.5t168.5 80.5l274 93v18q0 35 -2 56.5t-12 38t-20.5 24t-39.5 12.5t-55 5.5t-80 0.5q-42 0 -94 -2t-84 -4l-31 -2q-11 0 -14.5 4t-3.5 16v62q0 11 4 14.5t14 5.5q117 9 209 9q72 0 106.5 -1.5t85.5 -12t74 -32t41.5 -63.5t18.5 -104v-523 q0 -20 -20 -20h-29q-16 0 -23 14l-45 90v295l-278 -98q-55 -19 -73.5 -39.5t-18.5 -60.5v-15q0 -18 1.5 -30.5t8 -22.5t11.5 -16.5t20 -11t25 -6.5t35.5 -3.5t42.5 -1.5h54q85 0 172 10l-37 -84q-8 -12 -24 -14q-68 -8 -123 -8q-44 0 -68 0.5t-61 4t-57.5 10t-45 18.5 t-37 30.5t-21.5 45.5t-9 63z" />
<glyph unicode="&#xab;" horiz-adv-x="1007" d="M121 537q0 14 24 53l234 338q11 16 18 21t21 5h84q18 0 18 -14q0 -11 -28 -51l-242 -350l248 -355q28 -40 28 -51q0 -14 -18 -14h-90q-22 0 -39 26l-234 338q-24 36 -24 54zM469 537q0 13 25 53l233 338q11 16 18 21t21 5h84q18 0 18 -14q0 -11 -28 -51l-242 -350 l248 -355q28 -40 28 -51q0 -14 -18 -14h-90q-22 0 -39 26l-233 338q-25 37 -25 54z" />
<glyph unicode="&#xac;" d="M178 690v76q0 15 6 21t21 6h745q15 0 21 -6t6 -21v-317q0 -15 -6 -21t-21 -6h-78q-15 0 -20.5 6t-5.5 21v215h-641q-15 0 -21 5.5t-6 20.5z" />
<glyph unicode="&#xad;" horiz-adv-x="587" d="M92 498v75q0 15 6 21t21 6h350q15 0 21 -6t6 -21v-75q0 -15 -6 -21t-21 -6h-350q-15 0 -21 6t-6 21z" />
<glyph unicode="&#xae;" horiz-adv-x="1695" d="M143 360v709q0 93 25.5 158t75.5 108.5t137.5 68t197.5 34.5t269 10t269 -10t197.5 -34.5t137 -68t75 -108.5t25.5 -158v-709q0 -93 -25.5 -158t-75 -108.5t-137 -67.5t-197 -34t-269.5 -10t-269.5 10t-197 34t-137.5 67.5t-75.5 108.5t-25.5 158zM262 360 q0 -103 51.5 -159.5t177 -82.5t357.5 -26t357.5 26t177 82.5t51.5 159.5v709q0 103 -51.5 159.5t-177 82.5t-357.5 26t-357.5 -26t-177 -82.5t-51.5 -159.5v-709zM571 346v735q0 15 15 15h297q157 0 217.5 -40.5t60.5 -160.5v-72q0 -87 -31 -132t-102 -60l123 -254 q14 -28 14 -35q0 -10 -14 -10h-98q-15 0 -21 14l-123 270h-221v-270q0 -14 -14 -14h-88q-15 0 -15 14zM688 719h164q89 0 127.5 10t51.5 34t13 81v22q0 35 -4 55t-14 36t-33 23t-55 10t-86 3h-164v-274z" />
<glyph unicode="&#xaf;" horiz-adv-x="778" d="M82 1339v66q0 15 6 21t21 6h561q15 0 20.5 -6t5.5 -21v-66q0 -15 -5.5 -20.5t-20.5 -5.5h-561q-15 0 -21 5.5t-6 20.5z" />
<glyph unicode="&#xb0;" horiz-adv-x="831" d="M133 1096v145q0 110 62 157.5t221 47.5t220.5 -47.5t61.5 -157.5v-145q0 -110 -61.5 -157.5t-220.5 -47.5t-221 47.5t-62 157.5zM250 1096q0 -57 33 -82t133 -25t133 25t33 82v145q0 57 -33 82t-133 25t-133 -25t-33 -82v-145z" />
<glyph unicode="&#xb1;" d="M199 276v74q0 15 5.5 21t20.5 6h746q15 0 20.5 -6t5.5 -21v-74q0 -15 -5.5 -20.5t-20.5 -5.5h-746q-15 0 -20.5 5.5t-5.5 20.5zM199 811v72q0 15 5.5 20.5t20.5 5.5h310v265q0 15 5.5 20.5t20.5 5.5h78q15 0 21 -5.5t6 -20.5v-265h305q15 0 20.5 -5.5t5.5 -20.5v-72 q0 -15 -5.5 -21t-20.5 -6h-305v-270q0 -15 -6 -21t-21 -6h-78q-15 0 -20.5 6t-5.5 21v270h-310q-15 0 -20.5 6t-5.5 21z" />
<glyph unicode="&#xb2;" horiz-adv-x="792" d="M123 692v137q0 52 16 87.5t36 51t54 31.5l269 127q37 18 49 38.5t12 56.5v12q0 58 -38 78t-154 20q-25 0 -56 -0.5t-58.5 -1t-51 -1t-38.5 -1t-16 -0.5q-14 0 -14 12v74q0 9 3 11.5t11 2.5q132 7 224 7q170 0 234.5 -41.5t64.5 -161.5v-17q0 -75 -27 -110t-80 -60 l-268 -126q-37 -18 -49.5 -39t-12.5 -56v-45h412q8 0 11 -2.5t3 -11.5v-76q0 -12 -14 -12h-506q-16 0 -16 16z" />
<glyph unicode="&#xb3;" horiz-adv-x="800" d="M123 692v74q0 12 14 12q1 0 17 -0.5t41.5 -1.5t54.5 -2t60.5 -1.5t54.5 -0.5q119 0 160.5 23t41.5 88v32q0 67 -30 87t-134 20q-20 0 -35.5 -0.5t-24.5 -1t-15 -1t-9 -1t-4 -0.5q-14 0 -22 16l-25 43q-6 12 -6 15q0 6 6 12l240 223h-363q-14 0 -14 14v74q0 15 14 15h494 q14 0 14 -15v-59q0 -17 -8 -25l-229 -215q150 0 206 -37.5t56 -148.5v-60q0 -117 -70 -157.5t-243 -40.5l-228 6q-8 0 -11 2.5t-3 11.5z" />
<glyph unicode="&#xb4;" horiz-adv-x="477" d="M82 1231q0 7 24 53l107 182q10 16 16.5 21.5t20.5 5.5h127q18 0 18 -16q0 -9 -30 -52l-142 -182q-12 -15 -19.5 -20.5t-21.5 -5.5h-82q-18 0 -18 14z" />
<glyph unicode="&#xb6;" horiz-adv-x="1099" d="M72 870v248q0 158 77.5 235t235.5 77h270q15 0 21 -6t6 -21v-1376q0 -15 -6 -21t-21 -6h-80q-15 0 -20.5 6t-5.5 21v667l-62 -104q-11 -19 -19 -25t-26 -6h-57q-159 0 -236 76.5t-77 234.5zM811 27v1376q0 15 6 21t21 6h80q15 0 20.5 -6t5.5 -21v-1376q0 -15 -5.5 -21 t-20.5 -6h-80q-15 0 -21 6t-6 21z" />
<glyph unicode="&#xb7;" horiz-adv-x="485" d="M137 465v143q0 15 6 21t21 6h158q15 0 20.5 -6t5.5 -21v-143q0 -15 -5.5 -21t-20.5 -6h-158q-15 0 -21 6t-6 21z" />
<glyph unicode="&#xb8;" horiz-adv-x="548" d="M106 -262q0 15 6 20.5t21 5.5h14q38 0 56 1t38 6t27.5 15.5t7.5 29.5q0 31 -21.5 42t-74.5 11q-19 0 -26 7t-7 24v131h95v-88q50 0 86 -21q57 -29 57 -108q0 -142 -221 -142l-41 2q-17 3 -17 27v37z" />
<glyph unicode="&#xb9;" horiz-adv-x="753" d="M133 690v74q0 14 14 14h199v549h-182q-10 0 -10 8q0 5 14 29l29 51q9 15 20 15h225q15 0 15 -15v-637h190q15 0 15 -14v-74q0 -14 -15 -14h-500q-8 0 -11 2.5t-3 11.5z" />
<glyph unicode="&#xba;" horiz-adv-x="854" d="M102 901v299q0 38 7 69.5t17.5 54t29 40.5t35 29.5t43.5 19.5t46 12t49.5 6t48 2.5t48.5 0.5q58 0 90 -1.5t84 -14t80 -35.5t50 -69.5t22 -113.5v-299q0 -38 -7 -69.5t-17.5 -54t-29.5 -40.5t-35 -29t-43.5 -19t-46 -12t-50 -6t-48.5 -2.5t-49 -0.5q-41 0 -63 0.5 t-61.5 5t-62.5 13t-52.5 25.5t-45.5 41t-27.5 62t-11.5 86zM217 922q0 -44 9.5 -72.5t23 -44.5t44 -24t56.5 -9.5t76 -1.5q36 0 56.5 0.5t46.5 3.5t40 9.5t29 17t22 27t12 40t5 54.5v258q0 31 -5 54.5t-12 39.5t-22.5 27t-29 17t-39.5 9t-46.5 3.5t-56.5 0.5t-56 -0.5 t-46 -3.5t-39.5 -9t-28.5 -17t-22 -27t-12 -39.5t-5 -54.5v-258z" />
<glyph unicode="&#xbb;" horiz-adv-x="1007" d="M133 940q0 14 19 14h90q22 0 39 -26l233 -338q25 -38 25 -53q0 -14 -25 -54l-233 -338q-11 -16 -18 -21t-21 -5h-84q-19 0 -19 14q0 10 29 51l242 351l-248 354q-29 41 -29 51zM481 940q0 14 19 14h90q22 0 39 -26l233 -338q25 -38 25 -53q0 -14 -25 -54l-233 -338 q-11 -16 -18 -21t-21 -5h-84q-19 0 -19 14q0 10 29 51l242 351l-248 354q-29 41 -29 51z" />
<glyph unicode="&#xbc;" horiz-adv-x="1560" d="M123 690q0 -9 3 -11.5t11 -2.5h500q8 0 11 2.5t3 11.5v74q0 14 -14 14h-191v637q0 15 -14 15h-225q-12 0 -21 -15l-28 -51q-15 -26 -15 -29q0 -8 11 -8h182v-549h-199q-14 0 -14 -14v-74zM391 14q0 6 25 54l772 1335q10 16 16.5 21.5t20.5 5.5h67q19 0 19 -15 q0 -4 -2 -10t-5 -11t-8.5 -14.5t-9.5 -17.5l-772 -1335q-10 -16 -16.5 -21.5t-20.5 -5.5h-67q-19 0 -19 14zM856 188v76q0 12 6 21l344 456q10 13 23 13h102q10 0 10 -9q0 -5 -14 -22l-340 -449h320v164q0 15 12 15h84q14 0 14 -15v-424q0 -14 -14 -14h-84q-12 0 -12 14v160 h-437q-8 0 -11 2.5t-3 11.5z" />
<glyph unicode="&#xbd;" horiz-adv-x="1695" d="M123 690q0 -9 3 -11.5t11 -2.5h500q8 0 11 2.5t3 11.5v74q0 14 -14 14h-191v637q0 15 -14 15h-225q-12 0 -21 -15l-28 -51q-15 -26 -15 -29q0 -8 11 -8h182v-549h-199q-14 0 -14 -14v-74zM391 14q0 6 25 54l772 1335q10 16 16.5 21.5t20.5 5.5h67q19 0 19 -15 q0 -4 -2 -10t-5 -11t-8.5 -14.5t-9.5 -17.5l-772 -1335q-10 -16 -16.5 -21.5t-20.5 -5.5h-67q-19 0 -19 14zM1016 16v138q0 52 16 87.5t36 51t54 31.5l269 127q37 18 49 38t12 56v12q0 58 -38 78t-154 20q-25 0 -56 -0.5t-58.5 -1t-51 -1t-38.5 -1t-16 -0.5q-14 0 -14 13v73 q0 15 14 15q132 6 224 6q170 0 234.5 -41.5t64.5 -161.5v-16q0 -75 -27 -110t-80 -60l-268 -127q-37 -18 -49.5 -39t-12.5 -56v-45h412q8 0 11 -2.5t3 -11.5v-76q0 -12 -14 -12h-506q-16 0 -16 16z" />
<glyph unicode="&#xbe;" horiz-adv-x="1564" d="M133 692v74q0 12 14 12q1 0 17 -0.5t41.5 -1.5t54.5 -2t60.5 -1.5t54.5 -0.5q119 0 161 23t42 88v32q0 67 -30 87t-134 20q-20 0 -35.5 -0.5t-24.5 -1t-15 -1t-9 -1t-4 -0.5q-15 0 -23 16l-24 43q-7 14 -7 15q0 5 7 12l239 223h-362q-15 0 -15 14v74q0 15 15 15h493 q15 0 15 -15v-59q0 -16 -9 -25l-229 -215q150 0 206 -37.5t56 -148.5v-60q0 -117 -70 -157.5t-243 -40.5l-228 6q-8 0 -11 2.5t-3 11.5zM395 14q0 6 25 54l772 1335q10 16 16.5 21.5t20.5 5.5h67q19 0 19 -15q0 -4 -2 -10t-5 -11t-8.5 -14.5t-9.5 -17.5l-772 -1335 q-10 -16 -16.5 -21.5t-20.5 -5.5h-67q-19 0 -19 14zM860 188v76q0 12 6 21l344 456q10 13 23 13h102q11 0 11 -9q0 -3 -15 -22l-340 -449h320v164q0 15 12 15h84q14 0 14 -15v-424q0 -14 -14 -14h-84q-12 0 -12 14v160h-437q-8 0 -11 2.5t-3 11.5z" />
<glyph unicode="&#xbf;" horiz-adv-x="958" d="M92 -18q0 67 13 116t40 82.5t56.5 54.5t74.5 44l138 67q64 32 84 74.5t20 122.5v59q0 15 6 21t21 6h76q15 0 20.5 -6t5.5 -21v-70q0 -67 -13 -115.5t-41 -82.5t-57 -54.5t-75 -43.5l-137 -68q-64 -32 -83.5 -74.5t-19.5 -122.5v-34q0 -44 7.5 -77t18.5 -56t33.5 -38 t43 -23.5t58 -12.5t66.5 -5t80 -1q64 0 139.5 3t118.5 6l43 3q15 0 21 -6t6 -21v-65q0 -27 -27 -27q-158 -12 -301 -12q-162 0 -234 19q-161 43 -193 209q-9 44 -9 97v52zM477 881v143q0 15 6 21t21 6h158q15 0 20.5 -6t5.5 -21v-143q0 -15 -5.5 -21t-20.5 -6h-158 q-15 0 -21 6t-6 21z" />
<glyph unicode="&#xc0;" horiz-adv-x="1292" d="M133 27v1036q0 115 29 189.5t95.5 116t158 57.5t233.5 16q114 0 193 -10t142.5 -34.5t100 -68t55.5 -108.5t19 -158v-1036q0 -15 -5.5 -21t-20.5 -6h-80q-15 0 -21 6t-6 21v551h-760v-551q0 -15 -5.5 -21t-20.5 -6h-80q-15 0 -21 6t-6 21zM266 700h760v363 q0 78 -16.5 125.5t-61 77.5t-115 41.5t-186.5 11.5q-117 0 -188 -11.5t-115.5 -41.5t-61 -77.5t-16.5 -125.5v-363zM389 1804q0 17 19 17h127q14 0 20 -5t16 -22l107 -182q24 -46 24 -53q0 -15 -18 -15h-82q-14 0 -21.5 5.5t-19.5 21.5l-141 182q-3 5 -10.5 14.5t-11 14.5 t-6.5 11.5t-3 10.5z" />
<glyph unicode="&#xc1;" horiz-adv-x="1292" d="M133 27v1036q0 115 29 189.5t95.5 116t158 57.5t233.5 16q114 0 193 -10t142.5 -34.5t100 -68t55.5 -108.5t19 -158v-1036q0 -15 -5.5 -21t-20.5 -6h-80q-15 0 -21 6t-6 21v551h-760v-551q0 -15 -5.5 -21t-20.5 -6h-80q-15 0 -21 6t-6 21zM266 700h760v363 q0 78 -16.5 125.5t-61 77.5t-115 41.5t-186.5 11.5q-117 0 -188 -11.5t-115.5 -41.5t-61 -77.5t-16.5 -125.5v-363zM584 1559q0 7 24 53l107 182q10 16 16.5 21.5t20.5 5.5h127q18 0 18 -17q0 -4 -3 -10.5t-6.5 -11.5t-11 -14.5t-10.5 -14.5l-141 -182q-12 -16 -19.5 -21.5 t-21.5 -5.5h-82q-18 0 -18 15z" />
<glyph unicode="&#xc2;" horiz-adv-x="1292" d="M133 27v1036q0 115 29 189.5t95.5 116t158 57.5t233.5 16q114 0 193 -10t142.5 -34.5t100 -68t55.5 -108.5t19 -158v-1036q0 -15 -5.5 -21t-20.5 -6h-80q-15 0 -21 6t-6 21v551h-760v-551q0 -15 -5.5 -21t-20.5 -6h-80q-15 0 -21 6t-6 21zM266 700h760v363 q0 78 -16.5 125.5t-61 77.5t-115 41.5t-186.5 11.5q-117 0 -188 -11.5t-115.5 -41.5t-61 -77.5t-16.5 -125.5v-363zM379 1559q0 12 33 53l145 182q13 16 21 21.5t22 5.5h96q14 0 22 -5.5t21 -21.5l144 -182q32 -40 32 -53q0 -15 -18 -15h-94q-14 0 -22 5.5t-19 21.5 l-117 158l-117 -158q-11 -16 -19 -21.5t-22 -5.5h-90q-18 0 -18 15z" />
<glyph unicode="&#xc3;" horiz-adv-x="1292" d="M133 27v1036q0 115 29 189.5t95.5 116t158 57.5t233.5 16q114 0 193 -10t142.5 -34.5t100 -68t55.5 -108.5t19 -158v-1036q0 -15 -5.5 -21t-20.5 -6h-80q-15 0 -21 6t-6 21v551h-760v-551q0 -15 -5.5 -21t-20.5 -6h-80q-15 0 -21 6t-6 21zM266 700h760v363 q0 78 -16.5 125.5t-61 77.5t-115 41.5t-186.5 11.5q-117 0 -188 -11.5t-115.5 -41.5t-61 -77.5t-16.5 -125.5v-363zM309 1571v49q0 110 45.5 157.5t130.5 47.5q43 0 83 -19t70.5 -45.5t58.5 -53.5t57.5 -46t56.5 -19q36 0 46.5 25t10.5 80v47q0 15 6 21t21 6h57q15 0 21 -6 t6 -21v-49q0 -111 -44 -158t-128 -47q-43 0 -83 18.5t-70.5 45.5t-58.5 54t-57.5 45.5t-56.5 18.5q-38 0 -49.5 -25t-11.5 -79v-47q0 -15 -6 -21t-21 -6h-57q-15 0 -21 6t-6 21z" />
<glyph unicode="&#xc4;" horiz-adv-x="1292" d="M133 27v1036q0 115 29 189.5t95.5 116t158 57.5t233.5 16q114 0 193 -10t142.5 -34.5t100 -68t55.5 -108.5t19 -158v-1036q0 -15 -5.5 -21t-20.5 -6h-80q-15 0 -21 6t-6 21v551h-760v-551q0 -15 -5.5 -21t-20.5 -6h-80q-15 0 -21 6t-6 21zM266 700h760v363 q0 78 -16.5 125.5t-61 77.5t-115 41.5t-186.5 11.5q-117 0 -188 -11.5t-115.5 -41.5t-61 -77.5t-16.5 -125.5v-363zM330 1640v121q0 15 5.5 21t20.5 6h140q15 0 20.5 -6t5.5 -21v-121q0 -15 -5.5 -20.5t-20.5 -5.5h-140q-15 0 -20.5 5.5t-5.5 20.5zM770 1640v121q0 15 6 21 t21 6h139q15 0 21 -6t6 -21v-121q0 -15 -6 -20.5t-21 -5.5h-139q-15 0 -21 5.5t-6 20.5z" />
<glyph unicode="&#xc5;" horiz-adv-x="1292" d="M133 27v1036q0 115 29 189.5t95.5 116t158 57.5t233.5 16q114 0 193 -10t142.5 -34.5t100 -68t55.5 -108.5t19 -158v-1036q0 -15 -5.5 -21t-20.5 -6h-80q-15 0 -21 6t-6 21v551h-760v-551q0 -15 -5.5 -21t-20.5 -6h-80q-15 0 -21 6t-6 21zM266 700h760v363 q0 78 -16.5 125.5t-61 77.5t-115 41.5t-186.5 11.5q-117 0 -188 -11.5t-115.5 -41.5t-61 -77.5t-16.5 -125.5v-363zM420 1659v78q0 85 49.5 118t175.5 33t175.5 -33t49.5 -118v-78q0 -85 -49.5 -118.5t-175.5 -33.5t-175.5 33.5t-49.5 118.5zM522 1675q0 -52 25 -68t98 -16 t98 16t25 68v45q0 52 -25 68t-98 16t-98 -16t-25 -68v-45z" />
<glyph unicode="&#xc6;" horiz-adv-x="1671" d="M133 27v1024q0 115 29 189.5t95.5 116t158 57.5t233.5 16h901q15 0 21 -6t6 -21v-70q0 -15 -6 -20.5t-21 -5.5h-600v-529h557q15 0 21 -5.5t6 -20.5v-70q0 -15 -6 -21t-21 -6h-557v-376q0 -98 29 -127t127 -29h461q15 0 20.5 -6t5.5 -21v-69q0 -15 -5.5 -21t-20.5 -6 h-467q-160 0 -221.5 61t-61.5 220v374h-551v-628q0 -15 -5.5 -21t-20.5 -6h-80q-15 0 -21 6t-6 21zM266 778h551v529h-170q-117 0 -188 -11.5t-115.5 -41.5t-61 -77.5t-16.5 -125.5v-273z" />
<glyph unicode="&#xc7;" horiz-adv-x="1103" d="M117 373v686q0 93 20 158t59 108.5t106 68t150 34.5t203 10q73 0 158.5 -3t134.5 -5l49 -3q16 -2 21.5 -7t5.5 -19v-70q0 -15 -6 -20.5t-21 -5.5q-1 0 -21.5 1t-53.5 2.5t-74 3t-93 2.5t-100 1q-124 0 -199.5 -11.5t-123 -41.5t-65 -77.5t-17.5 -125.5v-686 q0 -78 17.5 -125.5t65 -77.5t123 -41.5t199.5 -11.5q51 0 139 3t155 6l67 3q15 0 20.5 -6t5.5 -21v-69q0 -15 -5.5 -20t-20.5 -7q-238 -12 -361 -12h-10v-51q50 0 86 -21q57 -29 57 -108q0 -142 -221 -142l-41 2q-9 2 -12.5 7t-3.5 20v37q0 15 6 20.5t21 5.5h14q38 0 56 1 t38 6t27.5 15.5t7.5 29.5q0 31 -21.5 42t-74.5 11q-19 0 -26 7t-7 24v96q-236 9 -335 90.5t-99 286.5z" />
<glyph unicode="&#xc8;" horiz-adv-x="1120" d="M145 281v1122q0 15 6 21t21 6h827q15 0 21 -6t6 -21v-70q0 -15 -6 -20.5t-21 -5.5h-720v-519h677q15 0 21 -5.5t6 -20.5v-70q0 -15 -6 -20.5t-21 -5.5h-677v-387q0 -98 28.5 -127t126.5 -29h582q15 0 20.5 -6t5.5 -21v-69q0 -15 -5.5 -21t-20.5 -6h-588q-160 0 -221.5 61 t-61.5 220zM340 1804q0 17 18 17h127q14 0 20.5 -5.5t16.5 -21.5l107 -182q24 -46 24 -53q0 -15 -18 -15h-82q-14 0 -21.5 5.5t-19.5 21.5l-141 182q-3 5 -10.5 14.5t-11 14.5t-6.5 11.5t-3 10.5z" />
<glyph unicode="&#xc9;" horiz-adv-x="1120" d="M145 281v1122q0 15 6 21t21 6h827q15 0 21 -6t6 -21v-70q0 -15 -6 -20.5t-21 -5.5h-720v-519h677q15 0 21 -5.5t6 -20.5v-70q0 -15 -6 -20.5t-21 -5.5h-677v-387q0 -98 28.5 -127t126.5 -29h582q15 0 20.5 -6t5.5 -21v-69q0 -15 -5.5 -21t-20.5 -6h-588q-160 0 -221.5 61 t-61.5 220zM524 1559q0 5 3 12.5t11 21t11 19.5l106 182q10 16 16.5 21.5t20.5 5.5h127q19 0 19 -17q0 -4 -3 -10.5t-6.5 -11.5t-11 -14.5t-10.5 -14.5l-141 -182q-12 -16 -19.5 -21.5t-21.5 -5.5h-82q-19 0 -19 15z" />
<glyph unicode="&#xca;" horiz-adv-x="1120" d="M145 281v1122q0 15 6 21t21 6h827q15 0 21 -6t6 -21v-70q0 -15 -6 -20.5t-21 -5.5h-720v-519h677q15 0 21 -5.5t6 -20.5v-70q0 -15 -6 -20.5t-21 -5.5h-677v-387q0 -98 28.5 -127t126.5 -29h582q15 0 20.5 -6t5.5 -21v-69q0 -15 -5.5 -21t-20.5 -6h-588q-160 0 -221.5 61 t-61.5 220zM328 1559q0 13 32 53l146 182q13 16 21 21.5t22 5.5h96q14 0 22 -5.5t21 -21.5l143 -182q33 -41 33 -53q0 -15 -18 -15h-94q-14 0 -22 5.5t-19 21.5l-117 158l-117 -158q-11 -16 -19 -21.5t-22 -5.5h-90q-18 0 -18 15z" />
<glyph unicode="&#xcb;" horiz-adv-x="1120" d="M145 281v1122q0 15 6 21t21 6h827q15 0 21 -6t6 -21v-70q0 -15 -6 -20.5t-21 -5.5h-720v-519h677q15 0 21 -5.5t6 -20.5v-70q0 -15 -6 -20.5t-21 -5.5h-677v-387q0 -98 28.5 -127t126.5 -29h582q15 0 20.5 -6t5.5 -21v-69q0 -15 -5.5 -21t-20.5 -6h-588q-160 0 -221.5 61 t-61.5 220zM270 1640v121q0 15 6 21t21 6h139q15 0 21 -6t6 -21v-121q0 -15 -6 -20.5t-21 -5.5h-139q-15 0 -21 5.5t-6 20.5zM711 1640v121q0 15 5.5 21t20.5 6h140q15 0 20.5 -6t5.5 -21v-121q0 -15 -5.5 -20.5t-20.5 -5.5h-140q-15 0 -20.5 5.5t-5.5 20.5z" />
<glyph unicode="&#xcc;" horiz-adv-x="444" d="M-35 1804q0 17 19 17h127q14 0 20 -5t16 -22l107 -182q3 -6 11 -19.5t11 -21t3 -12.5q0 -15 -19 -15h-82q-14 0 -21.5 5.5t-19.5 21.5l-141 182q-3 5 -10.5 14.5t-11 14.5t-6.5 11.5t-3 10.5zM156 27v1376q0 15 5.5 21t20.5 6h80q15 0 21 -6t6 -21v-1376q0 -15 -6 -21 t-21 -6h-80q-15 0 -20.5 6t-5.5 21z" />
<glyph unicode="&#xcd;" horiz-adv-x="444" d="M156 27v1376q0 15 5.5 21t20.5 6h80q15 0 21 -6t6 -21v-1376q0 -15 -6 -21t-21 -6h-80q-15 0 -20.5 6t-5.5 21zM166 1559q0 7 24 53l107 182q10 16 16.5 21.5t20.5 5.5h127q18 0 18 -17q0 -8 -30 -51l-142 -182q-12 -16 -19.5 -21.5t-21.5 -5.5h-82q-18 0 -18 15z" />
<glyph unicode="&#xce;" horiz-adv-x="444" d="M-45 1559q0 12 33 53l145 182q13 16 21 21.5t22 5.5h96q14 0 22 -5.5t21 -21.5l144 -182q33 -41 33 -53q0 -15 -19 -15h-94q-14 0 -22 5.5t-19 21.5l-117 158l-117 -158q-11 -16 -19 -21.5t-22 -5.5h-90q-18 0 -18 15zM156 27v1376q0 15 5.5 21t20.5 6h80q15 0 21 -6 t6 -21v-1376q0 -15 -6 -21t-21 -6h-80q-15 0 -20.5 6t-5.5 21z" />
<glyph unicode="&#xcf;" horiz-adv-x="444" d="M-68 1640v121q0 15 6 21t21 6h139q15 0 21 -6t6 -21v-121q0 -15 -6 -20.5t-21 -5.5h-139q-15 0 -21 5.5t-6 20.5zM156 27v1376q0 15 5.5 21t20.5 6h80q15 0 21 -6t6 -21v-1376q0 -15 -6 -21t-21 -6h-80q-15 0 -20.5 6t-5.5 21zM319 1640v121q0 15 6 21t21 6h139 q15 0 21 -6t6 -21v-121q0 -15 -6 -20.5t-21 -5.5h-139q-15 0 -21 5.5t-6 20.5z" />
<glyph unicode="&#xd0;" horiz-adv-x="1337" d="M61 692v70q0 15 6 20.5t21 5.5h107v615q0 15 5.5 21t20.5 6h461q120 0 203 -10t150.5 -34.5t106.5 -68t59 -108.5t20 -158v-672q0 -93 -20 -158t-59 -108.5t-106.5 -68t-150.5 -34.5t-203 -10h-461q-15 0 -20.5 6t-5.5 21v639h-107q-15 0 -21 5.5t-6 20.5zM328 123h354 q124 0 199.5 11.5t123 41.5t65 77.5t17.5 125.5v672q0 78 -17.5 125.5t-65 77.5t-123 41.5t-199.5 11.5h-354v-519h356q15 0 21 -5.5t6 -20.5v-70q0 -15 -6 -20.5t-21 -5.5h-356v-543z" />
<glyph unicode="&#xd1;" horiz-adv-x="1378" d="M156 27v1376q0 15 5.5 21t20.5 6h88q18 0 25.5 -5t19.5 -24l781 -1200v1202q0 15 5.5 21t20.5 6h74q15 0 21 -6t6 -21v-1376q0 -15 -6 -21t-21 -6h-88q-18 0 -25.5 5t-19.5 24l-780 1204v-1206q0 -15 -6 -21t-21 -6h-74q-15 0 -20.5 6t-5.5 21zM365 1571v49 q0 110 45.5 157.5t130.5 47.5q43 0 83 -19t70 -45.5t58 -53.5t57.5 -46t56.5 -19q36 0 47 25t11 80v47q0 15 5.5 21t20.5 6h58q15 0 20.5 -6t5.5 -21v-49q0 -111 -44 -158t-128 -47q-43 0 -83 18.5t-70 45.5t-58 54t-57.5 45.5t-56.5 18.5q-38 0 -50 -25t-12 -79v-47 q0 -15 -5.5 -21t-20.5 -6h-58q-15 0 -20.5 6t-5.5 21z" />
<glyph unicode="&#xd2;" horiz-adv-x="1323" d="M117 360v709q0 93 20.5 158t59.5 108.5t107 68t152 34.5t206 10t206 -10t152 -34.5t107 -68t59 -108.5t20 -158v-709q0 -116 -29.5 -189.5t-99 -115.5t-166 -57.5t-249.5 -15.5q-122 0 -206 10t-152 34t-107 67.5t-59.5 108.5t-20.5 158zM250 360q0 -78 17.5 -125.5 t66 -77.5t125.5 -41.5t203 -11.5t203 11.5t125 41.5t65.5 77.5t17.5 125.5v709q0 78 -17.5 125.5t-65.5 77.5t-125 41.5t-203 11.5t-203 -11.5t-125.5 -41.5t-66 -77.5t-17.5 -125.5v-709zM428 1804q0 17 18 17h127q14 0 20.5 -5.5t16.5 -21.5l107 -182q24 -46 24 -53 q0 -15 -18 -15h-82q-14 0 -21.5 5.5t-19.5 21.5l-141 182q-3 5 -10.5 14.5t-11 14.5t-6.5 11.5t-3 10.5z" />
<glyph unicode="&#xd3;" horiz-adv-x="1323" d="M117 360v709q0 93 20.5 158t59.5 108.5t107 68t152 34.5t206 10t206 -10t152 -34.5t107 -68t59 -108.5t20 -158v-709q0 -116 -29.5 -189.5t-99 -115.5t-166 -57.5t-249.5 -15.5q-122 0 -206 10t-152 34t-107 67.5t-59.5 108.5t-20.5 158zM250 360q0 -78 17.5 -125.5 t66 -77.5t125.5 -41.5t203 -11.5t203 11.5t125 41.5t65.5 77.5t17.5 125.5v709q0 78 -17.5 125.5t-65.5 77.5t-125 41.5t-203 11.5t-203 -11.5t-125.5 -41.5t-66 -77.5t-17.5 -125.5v-709zM594 1559q0 7 24 53l107 182q10 16 16.5 21.5t20.5 5.5h127q18 0 18 -17 q0 -8 -30 -51l-142 -182q-12 -16 -19.5 -21.5t-21.5 -5.5h-82q-18 0 -18 15z" />
<glyph unicode="&#xd4;" horiz-adv-x="1323" d="M117 360v709q0 93 20.5 158t59.5 108.5t107 68t152 34.5t206 10t206 -10t152 -34.5t107 -68t59 -108.5t20 -158v-709q0 -116 -29.5 -189.5t-99 -115.5t-166 -57.5t-249.5 -15.5q-122 0 -206 10t-152 34t-107 67.5t-59.5 108.5t-20.5 158zM250 360q0 -78 17.5 -125.5 t66 -77.5t125.5 -41.5t203 -11.5t203 11.5t125 41.5t65.5 77.5t17.5 125.5v709q0 78 -17.5 125.5t-65.5 77.5t-125 41.5t-203 11.5t-203 -11.5t-125.5 -41.5t-66 -77.5t-17.5 -125.5v-709zM395 1559q0 12 33 53l145 182q13 16 21 21.5t22 5.5h97q14 0 22 -5.5t21 -21.5 l143 -182q33 -41 33 -53q0 -15 -19 -15h-94q-14 0 -22 5.5t-19 21.5l-116 158l-117 -158q-11 -16 -19 -21.5t-22 -5.5h-90q-19 0 -19 15z" />
<glyph unicode="&#xd5;" horiz-adv-x="1323" d="M117 360v709q0 93 20.5 158t59.5 108.5t107 68t152 34.5t206 10t206 -10t152 -34.5t107 -68t59 -108.5t20 -158v-709q0 -116 -29.5 -189.5t-99 -115.5t-166 -57.5t-249.5 -15.5q-122 0 -206 10t-152 34t-107 67.5t-59.5 108.5t-20.5 158zM250 360q0 -78 17.5 -125.5 t66 -77.5t125.5 -41.5t203 -11.5t203 11.5t125 41.5t65.5 77.5t17.5 125.5v709q0 78 -17.5 125.5t-65.5 77.5t-125 41.5t-203 11.5t-203 -11.5t-125.5 -41.5t-66 -77.5t-17.5 -125.5v-709zM326 1571v49q0 110 45.5 157.5t130.5 47.5q43 0 83 -19t70 -45.5t58 -53.5t57.5 -46 t56.5 -19q37 0 47.5 25t10.5 80v47q0 15 5.5 21t20.5 6h58q15 0 20.5 -6t5.5 -21v-49q0 -111 -44 -158t-128 -47q-43 0 -83 18.5t-70 45.5t-58 54t-57.5 45.5t-56.5 18.5q-38 0 -50 -25t-12 -79v-47q0 -15 -5.5 -21t-20.5 -6h-58q-15 0 -20.5 6t-5.5 21z" />
<glyph unicode="&#xd6;" horiz-adv-x="1323" d="M117 360v709q0 93 20.5 158t59.5 108.5t107 68t152 34.5t206 10t206 -10t152 -34.5t107 -68t59 -108.5t20 -158v-709q0 -116 -29.5 -189.5t-99 -115.5t-166 -57.5t-249.5 -15.5q-122 0 -206 10t-152 34t-107 67.5t-59.5 108.5t-20.5 158zM250 360q0 -78 17.5 -125.5 t66 -77.5t125.5 -41.5t203 -11.5t203 11.5t125 41.5t65.5 77.5t17.5 125.5v709q0 78 -17.5 125.5t-65.5 77.5t-125 41.5t-203 11.5t-203 -11.5t-125.5 -41.5t-66 -77.5t-17.5 -125.5v-709zM344 1640v121q0 15 6 21t21 6h139q15 0 21 -6t6 -21v-121q0 -15 -6 -20.5t-21 -5.5 h-139q-15 0 -21 5.5t-6 20.5zM784 1640v121q0 15 6 21t21 6h139q15 0 21 -6t6 -21v-121q0 -15 -6 -20.5t-21 -5.5h-139q-15 0 -21 5.5t-6 20.5z" />
<glyph unicode="&#xd7;" d="M203 1098q0 14 20 14h107q4 0 7.5 -0.5t7 -2.5t5.5 -2.5t5.5 -4l4.5 -4.5t5.5 -6.5t5.5 -6.5l227 -274l229 274q1 2 4.5 6t5 5t4.5 4.5t4.5 4.5t4.5 2.5t5.5 2.5t5.5 1.5t7 0.5h103q20 0 20 -14q0 -7 -28 -41l-285 -332l287 -332q28 -34 28 -41q0 -14 -20 -14h-107 q-4 0 -7.5 0.5t-7 2.5t-5.5 2.5t-5.5 4l-4.5 4.5t-5.5 6.5t-5.5 6.5l-229 272l-227 -272q-1 -2 -4.5 -6t-5 -5t-4.5 -4.5t-4.5 -4.5t-4.5 -2.5t-5.5 -2.5t-5.5 -1.5t-7 -0.5h-103q-20 0 -20 14q0 7 28 41l285 330l-287 334q-28 34 -28 41z" />
<glyph unicode="&#xd8;" horiz-adv-x="1331" d="M117 360v709q0 93 20.5 158.5t60.5 108.5t108.5 67.5t153 34.5t206.5 10t206.5 -10t153 -34.5t108 -68t60 -108.5t20.5 -158v-709q0 -116 -30 -189.5t-100 -115.5t-167.5 -57.5t-250.5 -15.5q-122 0 -206.5 10t-153 34t-108.5 67.5t-60.5 108.5t-20.5 158zM250 360 q0 -115 26 -159l682 1095q-73 29 -292 29q-101 0 -169.5 -7.5t-118 -24.5t-77 -47.5t-39.5 -72.5t-12 -104v-709zM371 133q73 -29 295 -29q126 0 203.5 11.5t126.5 41.5t67 77.5t18 125.5v709q0 119 -28 160z" />
<glyph unicode="&#xd9;" horiz-adv-x="1292" d="M133 360v1043q0 15 6 21t21 6h80q15 0 20.5 -6t5.5 -21v-1043q0 -78 16.5 -125.5t61 -77.5t115 -41.5t186.5 -11.5q117 0 188 11.5t115.5 41.5t61 77.5t16.5 125.5v1043q0 15 6 21t21 6h80q15 0 20.5 -6t5.5 -21v-1043q0 -115 -29 -189t-95.5 -116t-158 -57.5 t-233.5 -15.5q-114 0 -193 10t-142.5 34t-100 67.5t-55.5 108.5t-19 158zM410 1804q0 17 18 17h127q14 0 20.5 -5.5t16.5 -21.5l106 -182q3 -6 11 -19.5t11 -21t3 -12.5q0 -15 -18 -15h-82q-14 0 -21.5 5.5t-19.5 21.5l-142 182q-30 43 -30 51z" />
<glyph unicode="&#xda;" horiz-adv-x="1292" d="M133 360v1043q0 15 6 21t21 6h80q15 0 20.5 -6t5.5 -21v-1043q0 -78 16.5 -125.5t61 -77.5t115 -41.5t186.5 -11.5q117 0 188 11.5t115.5 41.5t61 77.5t16.5 125.5v1043q0 15 6 21t21 6h80q15 0 20.5 -6t5.5 -21v-1043q0 -115 -29 -189t-95.5 -116t-158 -57.5 t-233.5 -15.5q-114 0 -193 10t-142.5 34t-100 67.5t-55.5 108.5t-19 158zM575 1559q0 5 3 12.5t11 21t11 19.5l107 182q10 17 16 22t20 5h127q19 0 19 -17q0 -4 -3 -10.5t-6.5 -11.5t-11 -14.5t-10.5 -14.5l-141 -182q-12 -16 -19.5 -21.5t-21.5 -5.5h-82q-19 0 -19 15z" />
<glyph unicode="&#xdb;" horiz-adv-x="1292" d="M133 360v1043q0 15 6 21t21 6h80q15 0 20.5 -6t5.5 -21v-1043q0 -78 16.5 -125.5t61 -77.5t115 -41.5t186.5 -11.5q117 0 188 11.5t115.5 41.5t61 77.5t16.5 125.5v1043q0 15 6 21t21 6h80q15 0 20.5 -6t5.5 -21v-1043q0 -115 -29 -189t-95.5 -116t-158 -57.5 t-233.5 -15.5q-114 0 -193 10t-142.5 34t-100 67.5t-55.5 108.5t-19 158zM379 1559q0 12 33 53l145 182q13 16 21 21.5t22 5.5h96q14 0 22 -5.5t21 -21.5l144 -182q32 -40 32 -53q0 -15 -18 -15h-94q-14 0 -22 5.5t-19 21.5l-117 158l-117 -158q-11 -16 -19 -21.5t-22 -5.5 h-90q-18 0 -18 15z" />
<glyph unicode="&#xdc;" horiz-adv-x="1292" d="M133 360v1043q0 15 6 21t21 6h80q15 0 20.5 -6t5.5 -21v-1043q0 -78 16.5 -125.5t61 -77.5t115 -41.5t186.5 -11.5q117 0 188 11.5t115.5 41.5t61 77.5t16.5 125.5v1043q0 15 6 21t21 6h80q15 0 20.5 -6t5.5 -21v-1043q0 -115 -29 -189t-95.5 -116t-158 -57.5 t-233.5 -15.5q-114 0 -193 10t-142.5 34t-100 67.5t-55.5 108.5t-19 158zM330 1640v121q0 15 5.5 21t20.5 6h140q15 0 20.5 -6t5.5 -21v-121q0 -15 -5.5 -20.5t-20.5 -5.5h-140q-15 0 -20.5 5.5t-5.5 20.5zM770 1640v121q0 15 6 21t21 6h139q15 0 21 -6t6 -21v-121 q0 -15 -6 -20.5t-21 -5.5h-139q-15 0 -21 5.5t-6 20.5z" />
<glyph unicode="&#xdd;" horiz-adv-x="1249" d="M31 1409q0 21 22 21h99q14 0 19 -4.5t13 -22.5l262 -608q21 -49 29 -67.5t22.5 -43t20 -29.5t22.5 -12.5t29 -7.5h41h33h41t29 7.5t22.5 12.5t20 29.5t22.5 43t29 67.5l262 608q8 18 13 22.5t20 4.5h94q23 0 23 -21q0 -4 -5.5 -17.5t-11.5 -24.5l-6 -11l-252 -561 q-12 -27 -29 -67.5t-25.5 -59t-22 -46t-23.5 -39t-25.5 -27.5t-33 -23t-40.5 -13t-53 -8v-485q0 -15 -5.5 -21t-20.5 -6h-80q-15 0 -21 6t-6 21v485q-30 2 -53.5 7.5t-41 12.5t-33.5 23t-26 28t-23.5 39.5t-22 46t-25.5 59t-29 67.5l-252 561q-22 43 -22 53zM555 1559 q0 5 3 12.5t11 21t11 19.5l106 182q10 16 16.5 21.5t20.5 5.5h127q18 0 18 -17q0 -8 -30 -51l-142 -182q-12 -16 -19.5 -21.5t-21.5 -5.5h-82q-18 0 -18 15z" />
<glyph unicode="&#xde;" horiz-adv-x="1204" d="M156 27v1376q0 15 5.5 21t20.5 6h80q15 0 21 -6t6 -21v-234h336q120 0 201 -10t145 -34t100 -67.5t54 -108t18 -158.5v-129q0 -94 -18 -158.5t-54 -108t-100 -68t-145.5 -34.5t-200.5 -10h-336v-256q0 -15 -6 -21t-21 -6h-80q-15 0 -20.5 6t-5.5 21zM289 406h336 q124 0 196.5 11t116 42t58 77.5t14.5 125.5v129q0 79 -14.5 125.5t-58 77.5t-116 42t-196.5 11h-336v-641z" />
<glyph unicode="&#xdf;" horiz-adv-x="1173" d="M150 27v1089q0 68 15 120.5t35 86.5t59 58t69 35.5t83 17.5t82.5 7t86.5 1t86.5 -1t82.5 -7t83 -17.5t69 -35.5t59 -58t35 -86.5t15 -120.5v-112q0 -64 -18 -112.5t-43.5 -73t-51 -40t-43.5 -18.5l-18 -4q10 0 26 -1.5t57.5 -17t73.5 -42t58 -84t26 -136.5v-149 q0 -68 -15 -120.5t-35 -86.5t-59 -58t-69 -35.5t-83 -17.5t-82.5 -7t-86.5 -1l-217 4q-15 0 -21 6t-6 21v65q0 15 6 21t21 6q119 -4 217 -4q43 0 68.5 0.5t59.5 3.5t53 9t41.5 16t34.5 25.5t23.5 37.5t16 52.5t4.5 68.5v127q0 44 -7 77.5t-18.5 56.5t-33 39t-42.5 25 t-56.5 13.5t-65.5 6t-78 1.5h-196q-15 0 -21 6t-6 21v69q0 15 6 21t21 6h129q49 0 78 1t65.5 5.5t57 13t42.5 24t33 38.5t18 56t7 77v94q0 38 -4.5 68.5t-16 52.5t-23.5 37.5t-34.5 25.5t-41.5 16t-53 9t-59.5 3.5t-68.5 0.5t-68.5 -0.5t-59.5 -3.5t-53 -9t-41.5 -16 t-34.5 -25.5t-23.5 -37.5t-16 -52.5t-4.5 -68.5v-1083q0 -15 -6 -21t-21 -6h-76q-15 0 -20.5 6t-5.5 21z" />
<glyph unicode="&#xe0;" horiz-adv-x="1044" d="M98 236v53q0 54 8.5 87t37.5 65.5t83 58.5t146 55l399 127v61q0 36 -2 61.5t-10 47t-16.5 34.5t-29 23t-38.5 15t-54.5 8t-68.5 3.5t-88 0.5q-58 0 -127 -3t-108 -6l-40 -3q-15 0 -20.5 5.5t-5.5 20.5v66q0 14 6 19t20 7q146 13 275 13q72 0 106.5 -1t91 -6t83.5 -16.5 t63 -32.5t52 -53t28 -79.5t12 -110.5v-729q0 -15 -6 -21t-21 -6h-20q-14 0 -19.5 3t-11.5 15l-51 103v446l-418 -135q-76 -24 -102.5 -54t-26.5 -87v-55q0 -89 55 -108t236 -19q113 0 254 12l-51 -92q-7 -13 -12.5 -16t-20.5 -5q-110 -12 -186 -12q-47 0 -74 0.5t-67.5 2.5 t-64 6.5t-55 13t-49.5 20.5t-38 30t-30 41.5t-17 55t-7 70.5zM268 1477q0 16 19 16h127q14 0 20.5 -5.5t16.5 -21.5l106 -182q3 -6 11 -19.5t11 -21t3 -12.5q0 -14 -19 -14h-82q-14 0 -21.5 5.5t-19.5 20.5l-141 182q-31 44 -31 52z" />
<glyph unicode="&#xe1;" horiz-adv-x="1044" d="M98 236v53q0 54 8.5 87t37.5 65.5t83 58.5t146 55l399 127v61q0 36 -2 61.5t-10 47t-16.5 34.5t-29 23t-38.5 15t-54.5 8t-68.5 3.5t-88 0.5q-58 0 -127 -3t-108 -6l-40 -3q-15 0 -20.5 5.5t-5.5 20.5v66q0 14 6 19t20 7q146 13 275 13q72 0 106.5 -1t91 -6t83.5 -16.5 t63 -32.5t52 -53t28 -79.5t12 -110.5v-729q0 -15 -6 -21t-21 -6h-20q-14 0 -19.5 3t-11.5 15l-51 103v446l-418 -135q-76 -24 -102.5 -54t-26.5 -87v-55q0 -89 55 -108t236 -19q113 0 254 12l-51 -92q-7 -13 -12.5 -16t-20.5 -5q-110 -12 -186 -12q-47 0 -74 0.5t-67.5 2.5 t-64 6.5t-55 13t-49.5 20.5t-38 30t-30 41.5t-17 55t-7 70.5zM457 1231q0 7 24 53l107 182q10 16 16.5 21.5t20.5 5.5h127q18 0 18 -16q0 -8 -31 -52l-141 -182q-12 -15 -19.5 -20.5t-21.5 -5.5h-82q-18 0 -18 14z" />
<glyph unicode="&#xe2;" horiz-adv-x="1044" d="M98 236v53q0 54 8.5 87t37.5 65.5t83 58.5t146 55l399 127v61q0 36 -2 61.5t-10 47t-16.5 34.5t-29 23t-38.5 15t-54.5 8t-68.5 3.5t-88 0.5q-58 0 -127 -3t-108 -6l-40 -3q-15 0 -20.5 5.5t-5.5 20.5v66q0 14 6 19t20 7q146 13 275 13q72 0 106.5 -1t91 -6t83.5 -16.5 t63 -32.5t52 -53t28 -79.5t12 -110.5v-729q0 -15 -6 -21t-21 -6h-20q-14 0 -19.5 3t-11.5 15l-51 103v446l-418 -135q-76 -24 -102.5 -54t-26.5 -87v-55q0 -89 55 -108t236 -19q113 0 254 12l-51 -92q-7 -13 -12.5 -16t-20.5 -5q-110 -12 -186 -12q-47 0 -74 0.5t-67.5 2.5 t-64 6.5t-55 13t-49.5 20.5t-38 30t-30 41.5t-17 55t-7 70.5zM252 1231q0 12 33 53l145 182q13 16 21 21.5t22 5.5h96q14 0 22 -5.5t21 -21.5l144 -182q32 -40 32 -53q0 -14 -18 -14h-94q-14 0 -22 5t-19 21l-117 158l-117 -158q-11 -16 -19 -21t-22 -5h-90q-18 0 -18 14z " />
<glyph unicode="&#xe3;" horiz-adv-x="1044" d="M98 236v53q0 54 8.5 87t37.5 65.5t83 58.5t146 55l399 127v61q0 36 -2 61.5t-10 47t-16.5 34.5t-29 23t-38.5 15t-54.5 8t-68.5 3.5t-88 0.5q-58 0 -127 -3t-108 -6l-40 -3q-15 0 -20.5 5.5t-5.5 20.5v66q0 14 6 19t20 7q146 13 275 13q72 0 106.5 -1t91 -6t83.5 -16.5 t63 -32.5t52 -53t28 -79.5t12 -110.5v-729q0 -15 -6 -21t-21 -6h-20q-14 0 -19.5 3t-11.5 15l-51 103v446l-418 -135q-76 -24 -102.5 -54t-26.5 -87v-55q0 -89 55 -108t236 -19q113 0 254 12l-51 -92q-7 -13 -12.5 -16t-20.5 -5q-110 -12 -186 -12q-47 0 -74 0.5t-67.5 2.5 t-64 6.5t-55 13t-49.5 20.5t-38 30t-30 41.5t-17 55t-7 70.5zM190 1243v49q0 110 46 157.5t131 47.5q43 0 83 -18.5t70 -45.5t58 -54t57.5 -45.5t56.5 -18.5q37 0 47.5 24.5t10.5 79.5v47q0 15 5.5 21t20.5 6h58q15 0 20.5 -6t5.5 -21v-49q0 -111 -44 -158t-128 -47 q-43 0 -83 19t-70.5 46t-58.5 53.5t-57.5 45.5t-56.5 19q-38 0 -49.5 -25.5t-11.5 -79.5v-47q0 -15 -6 -20.5t-21 -5.5h-57q-15 0 -21 5.5t-6 20.5z" />
<glyph unicode="&#xe4;" horiz-adv-x="1044" d="M98 236v53q0 54 8.5 87t37.5 65.5t83 58.5t146 55l399 127v61q0 36 -2 61.5t-10 47t-16.5 34.5t-29 23t-38.5 15t-54.5 8t-68.5 3.5t-88 0.5q-58 0 -127 -3t-108 -6l-40 -3q-15 0 -20.5 5.5t-5.5 20.5v66q0 14 6 19t20 7q146 13 275 13q72 0 106.5 -1t91 -6t83.5 -16.5 t63 -32.5t52 -53t28 -79.5t12 -110.5v-729q0 -15 -6 -21t-21 -6h-20q-14 0 -19.5 3t-11.5 15l-51 103v446l-418 -135q-76 -24 -102.5 -54t-26.5 -87v-55q0 -89 55 -108t236 -19q113 0 254 12l-51 -92q-7 -13 -12.5 -16t-20.5 -5q-110 -12 -186 -12q-47 0 -74 0.5t-67.5 2.5 t-64 6.5t-55 13t-49.5 20.5t-38 30t-30 41.5t-17 55t-7 70.5zM199 1313v121q0 15 5.5 20.5t20.5 5.5h140q15 0 20.5 -5.5t5.5 -20.5v-121q0 -15 -5.5 -21t-20.5 -6h-140q-15 0 -20.5 6t-5.5 21zM639 1313v121q0 15 6 20.5t21 5.5h139q15 0 20.5 -5.5t5.5 -20.5v-121 q0 -15 -5.5 -21t-20.5 -6h-139q-15 0 -21 6t-6 21z" />
<glyph unicode="&#xe5;" horiz-adv-x="1044" d="M98 236v53q0 54 8.5 87t37.5 65.5t83 58.5t146 55l399 127v61q0 36 -2 61.5t-10 47t-16.5 34.5t-29 23t-38.5 15t-54.5 8t-68.5 3.5t-88 0.5q-58 0 -127 -3t-108 -6l-40 -3q-15 0 -20.5 5.5t-5.5 20.5v66q0 14 6 19t20 7q146 13 275 13q72 0 106.5 -1t91 -6t83.5 -16.5 t63 -32.5t52 -53t28 -79.5t12 -110.5v-729q0 -15 -6 -21t-21 -6h-20q-14 0 -19.5 3t-11.5 15l-51 103v446l-418 -135q-76 -24 -102.5 -54t-26.5 -87v-55q0 -89 55 -108t236 -19q113 0 254 12l-51 -92q-7 -13 -12.5 -16t-20.5 -5q-110 -12 -186 -12q-47 0 -74 0.5t-67.5 2.5 t-64 6.5t-55 13t-49.5 20.5t-38 30t-30 41.5t-17 55t-7 70.5zM315 1331v78q0 85 50 118.5t176 33.5t175.5 -33.5t49.5 -118.5v-78q0 -85 -49.5 -118t-175.5 -33t-176 33t-50 118zM418 1348q0 -52 25 -68t98 -16t98 16t25 68v45q0 52 -25 68t-98 16t-98 -16t-25 -68v-45z" />
<glyph unicode="&#xe6;" horiz-adv-x="1536" d="M78 236v102q0 44 6.5 78.5t22 59t31.5 42t45 29t52 18t63 9.5t67 3.5t75 0.5h250v165q0 36 -2 61.5t-9 47t-14.5 34.5t-25.5 23t-34 15t-49 8t-61.5 3.5t-78.5 0.5q-52 0 -113.5 -3t-96.5 -6l-36 -3q-15 0 -21 5.5t-6 20.5v66q0 23 27 26q133 13 250 13q171 0 246 -23 t112 -92q17 28 34 46t49 36.5t83.5 27.5t124.5 9q44 0 69 -1t71 -7t73.5 -17.5t62.5 -35.5t55 -57.5t34 -86.5t14 -121v-241q0 -15 -6 -21t-21 -6h-602v-137q0 -60 13.5 -101.5t32.5 -63t56.5 -33t67.5 -13.5t84 -2q56 0 134 2.5t127 4.5l50 3q15 0 21 -6t6 -21v-65 q0 -27 -27 -27q-188 -10 -317 -10q-38 0 -59 0.5t-59 4t-64 11.5t-56.5 21t-54 35.5t-41.5 52.5l-49 -90q-7 -13 -12.5 -16t-20.5 -5q-143 -14 -211 -14q-48 0 -75 0.5t-67 3.5t-63 9.5t-52 18t-45 29t-31.5 42t-22 59t-6.5 78.5zM205 236q0 -24 2.5 -42t11.5 -31.5 t16.5 -22.5t28 -15t34 -9t46.5 -5t54 -2h67q26 0 81.5 3t114 6.5t72.5 4.5q-43 75 -43 199v143h-225h-67t-54 -2t-46.5 -5t-34 -9t-28 -15t-16.5 -22.5t-11.5 -31.5t-2.5 -42v-102zM819 578h500v149q0 44 -7 77t-17 55.5t-30 38t-37 24t-47 12.5t-52.5 5t-59.5 1t-59.5 -1 t-52.5 -5t-47 -12.5t-37 -24t-30 -38t-17 -55.5t-7 -77v-149z" />
<glyph unicode="&#xe7;" horiz-adv-x="940" d="M121 319v414q0 68 15 120.5t35.5 86.5t60 58t70 35.5t84 17.5t84 7t87.5 1q64 0 129.5 -2.5t99.5 -4.5l33 -3q27 0 27 -27v-66q0 -15 -6 -20.5t-21 -5.5q-117 10 -262 10q-51 0 -80 -1t-66.5 -5t-58 -12.5t-43 -23.5t-33.5 -38t-18.5 -56t-7.5 -77v-401q0 -44 7.5 -77 t18.5 -56t33.5 -38t43 -23.5t58 -12.5t66.5 -5t80 -1q64 0 130.5 2.5t100.5 4.5l35 3q15 0 21 -6t6 -21v-65q0 -27 -27 -27q-123 -10 -266 -10h-22v-51q50 0 86 -21q57 -29 57 -108q0 -142 -221 -142l-41 2q-17 3 -17 27v37q0 15 6 20.5t21 5.5h14q38 0 56 1t38 6t27.5 15.5 t7.5 29.5q0 31 -21.5 42t-74.5 11q-19 0 -26 7t-7 24v98q-54 3 -96.5 11t-86 29.5t-72 55.5t-46.5 91t-18 134z" />
<glyph unicode="&#xe8;" horiz-adv-x="1036" d="M121 322v411q0 78 17.5 137t54 93t70.5 55t91.5 29t90 10t90.5 2q70 0 109.5 -2t106 -19t103 -49t65.5 -97.5t29 -158.5v-248q0 -15 -5.5 -20.5t-20.5 -5.5h-672v-131q0 -44 8 -77t19.5 -55.5t34 -38t42 -24t54 -12.5t59.5 -5t68 -1q64 0 151.5 2.5t143.5 4.5l55 3 q15 0 20.5 -6t5.5 -21v-65q0 -27 -26 -27q-207 -10 -350 -10q-58 0 -90.5 2t-90 10t-91.5 29t-70.5 55t-54 93t-17.5 137zM250 578h569v149q0 44 -7.5 77t-19 55.5t-34 38t-42 24t-54 12.5t-59.5 5t-68 1t-68 -1t-59.5 -5t-54 -12.5t-42 -24t-34 -38t-19.5 -55.5t-8 -77 v-149zM287 1477q0 16 18 16h127q14 0 20.5 -5.5t16.5 -21.5l106 -182q3 -6 11 -19.5t11 -21t3 -12.5q0 -14 -18 -14h-82q-14 0 -21.5 5.5t-19.5 20.5l-142 182q-30 43 -30 52z" />
<glyph unicode="&#xe9;" horiz-adv-x="1036" d="M121 322v411q0 78 17.5 137t54 93t70.5 55t91.5 29t90 10t90.5 2q70 0 109.5 -2t106 -19t103 -49t65.5 -97.5t29 -158.5v-248q0 -15 -5.5 -20.5t-20.5 -5.5h-672v-131q0 -44 8 -77t19.5 -55.5t34 -38t42 -24t54 -12.5t59.5 -5t68 -1q64 0 151.5 2.5t143.5 4.5l55 3 q15 0 20.5 -6t5.5 -21v-65q0 -27 -26 -27q-207 -10 -350 -10q-58 0 -90.5 2t-90 10t-91.5 29t-70.5 55t-54 93t-17.5 137zM250 578h569v149q0 44 -7.5 77t-19 55.5t-34 38t-42 24t-54 12.5t-59.5 5t-68 1t-68 -1t-59.5 -5t-54 -12.5t-42 -24t-34 -38t-19.5 -55.5t-8 -77 v-149zM463 1231q0 7 24 53l107 182q10 16 16.5 21.5t20.5 5.5h127q18 0 18 -16q0 -8 -31 -52l-141 -182q-12 -15 -19.5 -20.5t-21.5 -5.5h-82q-18 0 -18 14z" />
<glyph unicode="&#xea;" horiz-adv-x="1036" d="M121 322v411q0 78 17.5 137t54 93t70.5 55t91.5 29t90 10t90.5 2q70 0 109.5 -2t106 -19t103 -49t65.5 -97.5t29 -158.5v-248q0 -15 -5.5 -20.5t-20.5 -5.5h-672v-131q0 -44 8 -77t19.5 -55.5t34 -38t42 -24t54 -12.5t59.5 -5t68 -1q64 0 151.5 2.5t143.5 4.5l55 3 q15 0 20.5 -6t5.5 -21v-65q0 -27 -26 -27q-207 -10 -350 -10q-58 0 -90.5 2t-90 10t-91.5 29t-70.5 55t-54 93t-17.5 137zM250 578h569v149q0 44 -7.5 77t-19 55.5t-34 38t-42 24t-54 12.5t-59.5 5t-68 1t-68 -1t-59.5 -5t-54 -12.5t-42 -24t-34 -38t-19.5 -55.5t-8 -77 v-149zM268 1231q0 12 33 53l145 182q13 16 21 21.5t22 5.5h97q14 0 22 -5.5t21 -21.5l143 -182q33 -41 33 -53q0 -14 -19 -14h-94q-14 0 -22 5t-19 21l-116 158l-117 -158q-11 -16 -18.5 -21t-22.5 -5h-90q-19 0 -19 14z" />
<glyph unicode="&#xeb;" horiz-adv-x="1036" d="M121 322v411q0 78 17.5 137t54 93t70.5 55t91.5 29t90 10t90.5 2q70 0 109.5 -2t106 -19t103 -49t65.5 -97.5t29 -158.5v-248q0 -15 -5.5 -20.5t-20.5 -5.5h-672v-131q0 -44 8 -77t19.5 -55.5t34 -38t42 -24t54 -12.5t59.5 -5t68 -1q64 0 151.5 2.5t143.5 4.5l55 3 q15 0 20.5 -6t5.5 -21v-65q0 -27 -26 -27q-207 -10 -350 -10q-58 0 -90.5 2t-90 10t-91.5 29t-70.5 55t-54 93t-17.5 137zM217 1313v121q0 15 6 20.5t21 5.5h139q15 0 21 -5.5t6 -20.5v-121q0 -15 -6 -21t-21 -6h-139q-15 0 -21 6t-6 21zM250 578h569v149q0 44 -7.5 77 t-19 55.5t-34 38t-42 24t-54 12.5t-59.5 5t-68 1t-68 -1t-59.5 -5t-54 -12.5t-42 -24t-34 -38t-19.5 -55.5t-8 -77v-149zM657 1313v121q0 15 6 20.5t21 5.5h139q15 0 21 -5.5t6 -20.5v-121q0 -15 -6 -21t-21 -6h-139q-15 0 -21 6t-6 21z" />
<glyph unicode="&#xec;" horiz-adv-x="573" d="M53 1477q0 16 19 16h127q14 0 20.5 -5.5t16.5 -21.5l106 -182q3 -6 11 -19.5t11 -21t3 -12.5q0 -14 -19 -14h-82q-14 0 -21.5 5.5t-19.5 20.5l-141 182q-31 44 -31 52zM72 958v66q0 15 5.5 21t20.5 6h299q15 0 21 -6t6 -21v-997q0 -15 -6 -21t-21 -6h-75q-15 0 -21 6 t-6 21v905h-197q-15 0 -20.5 5.5t-5.5 20.5z" />
<glyph unicode="&#xed;" horiz-adv-x="573" d="M72 958v66q0 15 5.5 21t20.5 6h299q15 0 21 -6t6 -21v-997q0 -15 -6 -21t-21 -6h-75q-15 0 -21 6t-6 21v905h-197q-15 0 -20.5 5.5t-5.5 20.5zM256 1231q0 5 3 12.5t11 21t11 19.5l106 182q10 16 16.5 21.5t20.5 5.5h127q18 0 18 -16q0 -9 -30 -52l-142 -182 q-12 -15 -19.5 -20.5t-21.5 -5.5h-82q-18 0 -18 14z" />
<glyph unicode="&#xee;" horiz-adv-x="573" d="M23 1231q0 13 32 53l146 182q13 16 21 21.5t22 5.5h96q14 0 22 -5.5t21 -21.5l143 -182q33 -41 33 -53q0 -14 -18 -14h-95q-14 0 -21.5 5t-18.5 21l-117 158l-117 -158q-11 -16 -18.5 -21t-22.5 -5h-90q-18 0 -18 14zM72 958v66q0 15 5.5 21t20.5 6h299q15 0 21 -6t6 -21 v-997q0 -15 -6 -21t-21 -6h-75q-15 0 -21 6t-6 21v905h-197q-15 0 -20.5 5.5t-5.5 20.5z" />
<glyph unicode="&#xef;" horiz-adv-x="573" d="M-10 1313v121q0 15 5.5 20.5t20.5 5.5h140q15 0 20.5 -5.5t5.5 -20.5v-121q0 -15 -5.5 -21t-20.5 -6h-140q-15 0 -20.5 6t-5.5 21zM72 958v66q0 15 5.5 21t20.5 6h299q15 0 21 -6t6 -21v-997q0 -15 -6 -21t-21 -6h-75q-15 0 -21 6t-6 21v905h-197q-15 0 -20.5 5.5 t-5.5 20.5zM377 1313v121q0 15 5.5 20.5t20.5 5.5h140q15 0 20.5 -5.5t5.5 -20.5v-121q0 -15 -5.5 -21t-20.5 -6h-140q-15 0 -20.5 6t-5.5 21z" />
<glyph unicode="&#xf0;" horiz-adv-x="1101" d="M117 315v293q0 68 15 120.5t35.5 86.5t60 58t70 35.5t84 17.5t84 7t87.5 1q64 0 119 -10t78 -20l22 -11l-164 248l-211 -58q-33 -10 -45 -10q-18 0 -18 27v57q0 14 5 19t21 10l185 49l-88 135q-29 45 -29 55q0 19 23 19h92q14 0 20.5 -5.5t16.5 -21.5l92 -147l176 49 q33 10 45 10q18 0 18 -26v-58q0 -14 -5 -18.5t-21 -9.5l-154 -43l117 -185q7 -12 29 -45.5t30 -47.5t25 -43.5t24 -49t16.5 -47.5t13 -56t3.5 -59v-326q0 -68 -15 -120.5t-35.5 -86.5t-59.5 -57.5t-69.5 -35t-84 -17.5t-83.5 -7t-87 -1h-2q-162 0 -234 19q-161 43 -193 209 q-9 44 -9 97zM246 322q0 -44 7.5 -77t18.5 -56t33.5 -38t43 -23.5t58 -12.5t66.5 -5t80 -1t80 1t66.5 5t58 12.5t43 23.5t33.5 38t18.5 56t7.5 77v280q0 44 -7.5 77t-18.5 56t-33.5 38t-43 23.5t-58 12.5t-66.5 5t-80 1t-80 -1t-66.5 -5t-58 -12.5t-43 -23.5t-33.5 -38 t-18.5 -56t-7.5 -77v-280z" />
<glyph unicode="&#xf1;" horiz-adv-x="1097" d="M150 27v997q0 15 5.5 21t20.5 6h21q13 0 18.5 -3.5t11.5 -15.5l52 -106v-899q0 -15 -6 -21t-21 -6h-76q-15 0 -20.5 6t-5.5 21zM213 1243v49q0 110 45.5 157.5t130.5 47.5q43 0 83 -18.5t70.5 -45.5t58.5 -54t57.5 -45.5t56.5 -18.5q36 0 46.5 24.5t10.5 79.5v47 q0 15 6 21t21 6h57q15 0 21 -6t6 -21v-49q0 -111 -44 -158t-128 -47q-43 0 -83 19t-70.5 46t-58.5 53.5t-57.5 45.5t-56.5 19q-38 0 -49.5 -25.5t-11.5 -79.5v-47q0 -15 -6 -20.5t-21 -5.5h-57q-15 0 -21 5.5t-6 20.5zM281 926l53 98q5 9 9 13t8 5t16 2q98 11 157 11 q57 0 87.5 -1t84 -7t84 -17.5t70 -35.5t60.5 -58t36 -86.5t15 -120.5v-702q0 -15 -6 -21t-21 -6h-76q-15 0 -21 6t-6 21v696q0 44 -7.5 77t-18.5 56t-33.5 38t-43 23.5t-58 12.5t-66.5 5t-80 1q-126 0 -243 -10z" />
<glyph unicode="&#xf2;" horiz-adv-x="1114" d="M121 315v418q0 68 15 120.5t35.5 86.5t60 58t70 35.5t84 17.5t84 7t87.5 1t87.5 -1t84 -7t84 -17.5t70 -35.5t60 -58t35.5 -86.5t15 -120.5v-418q0 -68 -15 -120.5t-35.5 -86.5t-59.5 -57.5t-69.5 -35t-84 -17.5t-83.5 -7t-87 -1h-2q-162 0 -234 19q-161 43 -193 209 q-9 44 -9 97zM250 322q0 -44 7.5 -77t18.5 -56t33.5 -38t43 -23.5t58 -12.5t66.5 -5t80 -1t80 1t66.5 5t58 12.5t43 23.5t33.5 38t18.5 56t7.5 77v405q0 44 -7.5 77t-18.5 56t-33.5 38t-43 23.5t-58 12.5t-66.5 5t-80 1t-80 -1t-66.5 -5t-58 -12.5t-43 -23.5t-33.5 -38 t-18.5 -56t-7.5 -77v-405zM309 1477q0 16 19 16h127q14 0 20.5 -5.5t16.5 -21.5l106 -182q3 -6 11 -19.5t11 -21t3 -12.5q0 -14 -19 -14h-82q-14 0 -21.5 5.5t-19.5 20.5l-141 182q-31 44 -31 52z" />
<glyph unicode="&#xf3;" horiz-adv-x="1114" d="M121 315v418q0 68 15 120.5t35.5 86.5t60 58t70 35.5t84 17.5t84 7t87.5 1t87.5 -1t84 -7t84 -17.5t70 -35.5t60 -58t35.5 -86.5t15 -120.5v-418q0 -68 -15 -120.5t-35.5 -86.5t-59.5 -57.5t-69.5 -35t-84 -17.5t-83.5 -7t-87 -1h-2q-162 0 -234 19q-161 43 -193 209 q-9 44 -9 97zM250 322q0 -44 7.5 -77t18.5 -56t33.5 -38t43 -23.5t58 -12.5t66.5 -5t80 -1t80 1t66.5 5t58 12.5t43 23.5t33.5 38t18.5 56t7.5 77v405q0 44 -7.5 77t-18.5 56t-33.5 38t-43 23.5t-58 12.5t-66.5 5t-80 1t-80 -1t-66.5 -5t-58 -12.5t-43 -23.5t-33.5 -38 t-18.5 -56t-7.5 -77v-405zM489 1231q0 5 3 12.5t11 21t11 19.5l107 182q10 17 16 22t20 5h127q19 0 19 -16q0 -8 -31 -52l-141 -182q-12 -15 -19.5 -20.5t-21.5 -5.5h-82q-19 0 -19 14z" />
<glyph unicode="&#xf4;" horiz-adv-x="1114" d="M121 315v418q0 68 15 120.5t35.5 86.5t60 58t70 35.5t84 17.5t84 7t87.5 1t87.5 -1t84 -7t84 -17.5t70 -35.5t60 -58t35.5 -86.5t15 -120.5v-418q0 -68 -15 -120.5t-35.5 -86.5t-59.5 -57.5t-69.5 -35t-84 -17.5t-83.5 -7t-87 -1h-2q-162 0 -234 19q-161 43 -193 209 q-9 44 -9 97zM250 322q0 -44 7.5 -77t18.5 -56t33.5 -38t43 -23.5t58 -12.5t66.5 -5t80 -1t80 1t66.5 5t58 12.5t43 23.5t33.5 38t18.5 56t7.5 77v405q0 44 -7.5 77t-18.5 56t-33.5 38t-43 23.5t-58 12.5t-66.5 5t-80 1t-80 -1t-66.5 -5t-58 -12.5t-43 -23.5t-33.5 -38 t-18.5 -56t-7.5 -77v-405zM291 1231q0 12 33 53l145 182q13 16 21 21.5t22 5.5h96q14 0 22 -5.5t21 -21.5l144 -182q32 -40 32 -53q0 -14 -18 -14h-94q-15 0 -22.5 5t-18.5 21l-117 158l-117 -158q-11 -16 -19 -21t-22 -5h-90q-18 0 -18 14z" />
<glyph unicode="&#xf5;" horiz-adv-x="1114" d="M121 315v418q0 68 15 120.5t35.5 86.5t60 58t70 35.5t84 17.5t84 7t87.5 1t87.5 -1t84 -7t84 -17.5t70 -35.5t60 -58t35.5 -86.5t15 -120.5v-418q0 -68 -15 -120.5t-35.5 -86.5t-59.5 -57.5t-69.5 -35t-84 -17.5t-83.5 -7t-87 -1h-2q-162 0 -234 19q-161 43 -193 209 q-9 44 -9 97zM221 1243v49q0 110 45.5 157.5t130.5 47.5q43 0 83 -18.5t70.5 -45.5t58.5 -54t57.5 -45.5t56.5 -18.5q36 0 46.5 24.5t10.5 79.5v47q0 15 6 21t21 6h57q15 0 21 -6t6 -21v-49q0 -111 -44 -158t-128 -47q-43 0 -83 19t-70.5 46t-58.5 53.5t-57.5 45.5t-56.5 19 q-38 0 -49.5 -25.5t-11.5 -79.5v-47q0 -15 -6 -20.5t-21 -5.5h-57q-15 0 -21 5.5t-6 20.5zM250 322q0 -44 7.5 -77t18.5 -56t33.5 -38t43 -23.5t58 -12.5t66.5 -5t80 -1t80 1t66.5 5t58 12.5t43 23.5t33.5 38t18.5 56t7.5 77v405q0 44 -7.5 77t-18.5 56t-33.5 38t-43 23.5 t-58 12.5t-66.5 5t-80 1t-80 -1t-66.5 -5t-58 -12.5t-43 -23.5t-33.5 -38t-18.5 -56t-7.5 -77v-405z" />
<glyph unicode="&#xf6;" horiz-adv-x="1114" d="M121 315v418q0 68 15 120.5t35.5 86.5t60 58t70 35.5t84 17.5t84 7t87.5 1t87.5 -1t84 -7t84 -17.5t70 -35.5t60 -58t35.5 -86.5t15 -120.5v-418q0 -68 -15 -120.5t-35.5 -86.5t-59.5 -57.5t-69.5 -35t-84 -17.5t-83.5 -7t-87 -1h-2q-162 0 -234 19q-161 43 -193 209 q-9 44 -9 97zM240 1313v121q0 15 5.5 20.5t20.5 5.5h140q15 0 20.5 -5.5t5.5 -20.5v-121q0 -15 -5.5 -21t-20.5 -6h-140q-15 0 -20.5 6t-5.5 21zM250 322q0 -44 7.5 -77t18.5 -56t33.5 -38t43 -23.5t58 -12.5t66.5 -5t80 -1t80 1t66.5 5t58 12.5t43 23.5t33.5 38t18.5 56 t7.5 77v405q0 44 -7.5 77t-18.5 56t-33.5 38t-43 23.5t-58 12.5t-66.5 5t-80 1t-80 -1t-66.5 -5t-58 -12.5t-43 -23.5t-33.5 -38t-18.5 -56t-7.5 -77v-405zM680 1313v121q0 15 6 20.5t21 5.5h139q15 0 20.5 -5.5t5.5 -20.5v-121q0 -15 -5.5 -21t-20.5 -6h-139q-15 0 -21 6 t-6 21z" />
<glyph unicode="&#xf7;" d="M199 690v76q0 15 5.5 21t20.5 6h746q15 0 20.5 -6t5.5 -21v-76q0 -15 -5.5 -20.5t-20.5 -5.5h-746q-15 0 -20.5 5.5t-5.5 20.5zM504 334v133q0 15 5.5 21t20.5 6h140q15 0 20.5 -6t5.5 -21v-133q0 -15 -5.5 -21t-20.5 -6h-140q-15 0 -20.5 6t-5.5 21zM504 989v133 q0 15 5.5 21t20.5 6h140q15 0 20.5 -6t5.5 -21v-133q0 -15 -5.5 -20.5t-20.5 -5.5h-140q-15 0 -20.5 5.5t-5.5 20.5z" />
<glyph unicode="&#xf8;" horiz-adv-x="1118" d="M121 315v418q0 68 15 120.5t36 86.5t60.5 58t70 35.5t84.5 17.5t84.5 7t87.5 1t87.5 -1t84.5 -7t84.5 -17.5t70 -35.5t60.5 -58t36 -86.5t15 -120.5v-418q0 -68 -15 -120.5t-36 -86.5t-60 -57.5t-69.5 -35t-84.5 -17.5t-84 -7t-87 -1h-2q-162 0 -235 19q-164 44 -195 212 q-8 43 -8 94zM250 322q0 -86 26 -136l486 740q-51 14 -203 14q-51 0 -80 -1t-67 -5t-58.5 -12.5t-43.5 -24t-34 -38t-18.5 -55.5t-7.5 -77v-405zM358 123q57 -14 201 -14q51 0 80 1t67 5t58.5 12.5t43.5 24t34 38t18.5 55.5t7.5 77v405q0 85 -24 131z" />
<glyph unicode="&#xf9;" horiz-adv-x="1097" d="M137 322v702q0 15 6 21t21 6h76q15 0 20.5 -6t5.5 -21v-696q0 -44 7.5 -77t18.5 -56t33.5 -38t43 -23.5t58 -12.5t66.5 -5t80 -1q103 0 244 12l-53 -98q-7 -13 -12.5 -16t-20.5 -5q-99 -12 -158 -12q-57 0 -87.5 1t-84 7t-84 17.5t-70 35.5t-60 58t-35.5 86.5t-15 120.5z M309 1477q0 16 19 16h127q14 0 20.5 -5.5t16.5 -21.5l106 -182q3 -6 11 -19.5t11 -21t3 -12.5q0 -14 -19 -14h-82q-14 0 -21.5 5.5t-19.5 20.5l-141 182q-31 44 -31 52zM819 127v897q0 15 6 21t21 6h76q15 0 20.5 -6t5.5 -21v-997q0 -15 -5.5 -21t-20.5 -6h-21 q-14 0 -19.5 3t-11.5 15z" />
<glyph unicode="&#xfa;" horiz-adv-x="1097" d="M137 322v702q0 15 6 21t21 6h76q15 0 20.5 -6t5.5 -21v-696q0 -44 7.5 -77t18.5 -56t33.5 -38t43 -23.5t58 -12.5t66.5 -5t80 -1q103 0 244 12l-53 -98q-7 -13 -12.5 -16t-20.5 -5q-99 -12 -158 -12q-57 0 -87.5 1t-84 7t-84 17.5t-70 35.5t-60 58t-35.5 86.5t-15 120.5z M467 1231q0 5 3 12.5t11 21t11 19.5l106 182q10 16 16.5 21.5t20.5 5.5h127q18 0 18 -16q0 -9 -30 -52l-142 -182q-12 -15 -19.5 -20.5t-21.5 -5.5h-82q-18 0 -18 14zM819 127v897q0 15 6 21t21 6h76q15 0 20.5 -6t5.5 -21v-997q0 -15 -5.5 -21t-20.5 -6h-21q-14 0 -19.5 3 t-11.5 15z" />
<glyph unicode="&#xfb;" horiz-adv-x="1097" d="M137 322v702q0 15 6 21t21 6h76q15 0 20.5 -6t5.5 -21v-696q0 -44 7.5 -77t18.5 -56t33.5 -38t43 -23.5t58 -12.5t66.5 -5t80 -1q103 0 244 12l-53 -98q-7 -13 -12.5 -16t-20.5 -5q-99 -12 -158 -12q-57 0 -87.5 1t-84 7t-84 17.5t-70 35.5t-60 58t-35.5 86.5t-15 120.5z M281 1231q0 13 32 53l146 182q13 16 21 21.5t22 5.5h96q14 0 22 -5.5t21 -21.5l143 -182q33 -41 33 -53q0 -14 -18 -14h-94q-15 0 -22.5 5t-18.5 21l-117 158l-117 -158q-11 -16 -18.5 -21t-22.5 -5h-90q-18 0 -18 14zM819 127v897q0 15 6 21t21 6h76q15 0 20.5 -6t5.5 -21 v-997q0 -15 -5.5 -21t-20.5 -6h-21q-14 0 -19.5 3t-11.5 15z" />
<glyph unicode="&#xfc;" horiz-adv-x="1097" d="M137 322v702q0 15 6 21t21 6h76q15 0 20.5 -6t5.5 -21v-696q0 -44 7.5 -77t18.5 -56t33.5 -38t43 -23.5t58 -12.5t66.5 -5t80 -1q103 0 244 12l-53 -98q-7 -13 -12.5 -16t-20.5 -5q-99 -12 -158 -12q-57 0 -87.5 1t-84 7t-84 17.5t-70 35.5t-60 58t-35.5 86.5t-15 120.5z M229 1313v121q0 15 6 20.5t21 5.5h139q15 0 21 -5.5t6 -20.5v-121q0 -15 -6 -21t-21 -6h-139q-15 0 -21 6t-6 21zM670 1313v121q0 15 5.5 20.5t20.5 5.5h140q15 0 20.5 -5.5t5.5 -20.5v-121q0 -15 -5.5 -21t-20.5 -6h-140q-15 0 -20.5 6t-5.5 21zM819 127v897q0 15 6 21 t21 6h76q15 0 20.5 -6t5.5 -21v-997q0 -15 -5.5 -21t-20.5 -6h-21q-14 0 -19.5 3t-11.5 15z" />
<glyph unicode="&#xfd;" horiz-adv-x="1091" d="M131 391v633q0 15 6 21t21 6h75q15 0 21 -6t6 -21v-627q0 -44 7.5 -77t18.5 -56t33.5 -38t43 -23.5t58 -12.5t66.5 -5t80 -1q115 0 244 11l-53 -99q-5 -9 -9 -13t-8 -5t-16 -2q-99 -10 -158 -10q-162 0 -234 19q-161 43 -193 209q-9 44 -9 97zM164 -242q0 15 5.5 21 t20.5 6q193 -10 338 -10q43 0 68 1t59.5 5t54 12.5t42 24t34 38t19.5 55.5t8 77v1036q0 15 6 21t21 6h75q15 0 21 -6t6 -21v-1042q0 -78 -17.5 -137t-54 -93t-70.5 -55t-91.5 -29t-90 -10t-90.5 -2q-81 0 -165.5 2.5t-128.5 5.5l-44 2q-26 0 -26 27v65zM471 1231q0 5 3 12.5 t11 21t11 19.5l106 182q10 16 16.5 21.5t20.5 5.5h127q18 0 18 -16q0 -9 -30 -52l-142 -182q-12 -15 -19.5 -20.5t-21.5 -5.5h-82q-18 0 -18 14z" />
<glyph unicode="&#xfe;" horiz-adv-x="1105" d="M150 -301v1716q0 15 5.5 21t20.5 6h76q15 0 21 -6t6 -21v-1292q2 0 43.5 -1.5t105.5 -3t121 -1.5q51 0 80 1t66.5 5t58 12.5t43 23.5t33.5 38t18.5 56t7.5 77v389q0 44 -7.5 77t-18.5 56t-33.5 38t-43 23.5t-58 12.5t-66.5 5t-80 1q-57 0 -124 -2.5t-105 -5.5l-39 -2 l53 102q5 9 9 13t8 5t16 2q123 7 182 7q57 0 87.5 -1t84 -7t84 -17.5t70 -35.5t60 -58t35.5 -86.5t15 -120.5v-401q0 -68 -15 -120.5t-35.5 -86.5t-60 -58t-70 -35.5t-84 -17.5t-84 -7t-87.5 -1q-82 0 -270 8v-307q0 -15 -6 -21t-21 -6h-76q-15 0 -20.5 6t-5.5 21z" />
<glyph unicode="&#xff;" horiz-adv-x="1091" d="M131 391v633q0 15 6 21t21 6h75q15 0 21 -6t6 -21v-627q0 -44 7.5 -77t18.5 -56t33.5 -38t43 -23.5t58 -12.5t66.5 -5t80 -1q115 0 244 11l-53 -99q-5 -9 -9 -13t-8 -5t-16 -2q-99 -10 -158 -10q-162 0 -234 19q-161 43 -193 209q-9 44 -9 97zM164 -242q0 15 5.5 21 t20.5 6q193 -10 338 -10q43 0 68 1t59.5 5t54 12.5t42 24t34 38t19.5 55.5t8 77v1036q0 15 6 21t21 6h75q15 0 21 -6t6 -21v-1042q0 -78 -17.5 -137t-54 -93t-70.5 -55t-91.5 -29t-90 -10t-90.5 -2q-81 0 -165.5 2.5t-128.5 5.5l-44 2q-26 0 -26 27v65zM217 1313v121 q0 15 6 20.5t21 5.5h139q15 0 21 -5.5t6 -20.5v-121q0 -15 -6 -21t-21 -6h-139q-15 0 -21 6t-6 21zM657 1313v121q0 15 6 20.5t21 5.5h139q15 0 21 -5.5t6 -20.5v-121q0 -15 -6 -21t-21 -6h-139q-15 0 -21 6t-6 21z" />
<glyph unicode="&#x152;" horiz-adv-x="1732" d="M117 379v672q0 93 20 158t59 108.5t106 68t150 34.5t203 10h957q15 0 20.5 -6t5.5 -21v-70q0 -15 -5.5 -20.5t-20.5 -5.5h-637v-519h594q15 0 20.5 -5.5t5.5 -20.5v-70q0 -15 -5.5 -20.5t-20.5 -5.5h-594v-543h653q15 0 21 -6t6 -21v-69q0 -15 -6 -21t-21 -6h-973 q-120 0 -203 10t-150 34.5t-106 68t-59 108.5t-20 158zM250 379q0 -78 17.5 -125.5t65 -77.5t123 -41.5t199.5 -11.5h187v1184h-187q-124 0 -199.5 -11.5t-123 -41.5t-65 -77.5t-17.5 -125.5v-672z" />
<glyph unicode="&#x153;" horiz-adv-x="1779" d="M121 315v418q0 68 15 120.5t35.5 86.5t60 58t70 35.5t84 17.5t84 7t87.5 1q141 0 231 -26t142 -97q50 71 135 97t213 26q58 0 90.5 -2t90 -10t91.5 -29t70.5 -55t54 -93t17.5 -137v-248q0 -15 -6 -20.5t-21 -5.5h-672v-133q0 -38 5.5 -68.5t17.5 -52t24.5 -37t35 -25.5 t40.5 -16t49 -8.5t53 -3t60 -0.5q64 0 151.5 2.5t142.5 4.5l56 3q15 0 21 -6t6 -21v-65q0 -27 -27 -27q-207 -10 -350 -10q-141 0 -220.5 23t-131.5 94q-51 -72 -136 -97.5t-233 -25.5q-162 0 -234 19q-161 43 -193 209q-9 44 -9 97zM250 322q0 -44 7.5 -77t18.5 -56 t33.5 -38t43 -23.5t58 -12.5t66.5 -5t80 -1t80 1t66.5 5t58 12.5t43 23.5t33.5 38t18.5 56t7.5 77v405q0 44 -7.5 77t-18.5 56t-33.5 38t-43 23.5t-58 12.5t-66.5 5t-80 1t-80 -1t-66.5 -5t-58 -12.5t-43 -23.5t-33.5 -38t-18.5 -56t-7.5 -77v-405zM993 578h570v149 q0 44 -8 77t-19.5 55.5t-34 38t-42 24t-54 12.5t-59.5 5t-68 1q-42 0 -66.5 -1t-58 -5t-53.5 -11.5t-42 -22t-34.5 -35.5t-21 -52t-9.5 -72v-163z" />
<glyph unicode="&#x178;" horiz-adv-x="1249" d="M31 1409q0 21 22 21h99q14 0 19 -4.5t13 -22.5l262 -608q21 -49 29 -67.5t22.5 -43t20 -29.5t22.5 -12.5t29 -7.5h41h33h41t29 7.5t22.5 12.5t20 29.5t22.5 43t29 67.5l262 608q8 18 13 22.5t20 4.5h94q23 0 23 -21q0 -4 -5.5 -17.5t-11.5 -24.5l-6 -11l-252 -561 q-12 -27 -29 -67.5t-25.5 -59t-22 -46t-23.5 -39t-25.5 -27.5t-33 -23t-40.5 -13t-53 -8v-485q0 -15 -5.5 -21t-20.5 -6h-80q-15 0 -21 6t-6 21v485q-30 2 -53.5 7.5t-41 12.5t-33.5 23t-26 28t-23.5 39.5t-22 46t-25.5 59t-29 67.5l-252 561q-22 43 -22 53zM309 1640v121 q0 15 6 21t21 6h139q15 0 21 -6t6 -21v-121q0 -15 -6 -20.5t-21 -5.5h-139q-15 0 -21 5.5t-6 20.5zM750 1640v121q0 15 5.5 21t20.5 6h139q15 0 21 -6t6 -21v-121q0 -15 -6 -20.5t-21 -5.5h-139q-15 0 -20.5 5.5t-5.5 20.5z" />
<glyph unicode="&#x2c6;" horiz-adv-x="700" d="M82 1231q0 12 33 53l145 182q13 16 21 21.5t22 5.5h96q14 0 22 -5.5t21 -21.5l144 -182q32 -40 32 -53q0 -14 -18 -14h-94q-15 0 -22.5 5t-18.5 21l-117 158l-117 -158q-11 -16 -19 -21t-22 -5h-90q-18 0 -18 14z" />
<glyph unicode="&#x2dc;" horiz-adv-x="833" d="M82 1243v49q0 110 45.5 157.5t130.5 47.5q43 0 83 -18.5t70.5 -45.5t58.5 -54t57.5 -45.5t56.5 -18.5q36 0 46.5 24.5t10.5 79.5v47q0 15 6 21t21 6h57q15 0 21 -6t6 -21v-49q0 -111 -44 -158t-128 -47q-43 0 -83 19t-70.5 46t-58.5 53.5t-57.5 45.5t-56.5 19 q-38 0 -49.5 -25.5t-11.5 -79.5v-47q0 -15 -6 -20.5t-21 -5.5h-57q-15 0 -21 5.5t-6 20.5z" />
<glyph unicode="&#x2000;" horiz-adv-x="944" />
<glyph unicode="&#x2001;" horiz-adv-x="1888" />
<glyph unicode="&#x2002;" horiz-adv-x="944" />
<glyph unicode="&#x2003;" horiz-adv-x="1888" />
<glyph unicode="&#x2004;" horiz-adv-x="629" />
<glyph unicode="&#x2005;" horiz-adv-x="472" />
<glyph unicode="&#x2006;" horiz-adv-x="314" />
<glyph unicode="&#x2007;" horiz-adv-x="314" />
<glyph unicode="&#x2008;" horiz-adv-x="236" />
<glyph unicode="&#x2009;" horiz-adv-x="377" />
<glyph unicode="&#x200a;" horiz-adv-x="104" />
<glyph unicode="&#x2010;" horiz-adv-x="587" d="M92 498v75q0 15 6 21t21 6h350q15 0 21 -6t6 -21v-75q0 -15 -6 -21t-21 -6h-350q-15 0 -21 6t-6 21z" />
<glyph unicode="&#x2011;" horiz-adv-x="587" d="M92 498v75q0 15 6 21t21 6h350q15 0 21 -6t6 -21v-75q0 -15 -6 -21t-21 -6h-350q-15 0 -21 6t-6 21z" />
<glyph unicode="&#x2012;" horiz-adv-x="587" d="M92 498v75q0 15 6 21t21 6h350q15 0 21 -6t6 -21v-75q0 -15 -6 -21t-21 -6h-350q-15 0 -21 6t-6 21z" />
<glyph unicode="&#x2013;" horiz-adv-x="1024" d="M92 498v75q0 15 6 21t21 6h786q15 0 21 -6t6 -21v-75q0 -15 -6 -21t-21 -6h-786q-15 0 -21 6t-6 21z" />
<glyph unicode="&#x2014;" horiz-adv-x="2048" d="M92 498v75q0 15 6 21t21 6h1810q15 0 21 -6t6 -21v-75q0 -15 -6 -21t-21 -6h-1810q-15 0 -21 6t-6 21z" />
<glyph unicode="&#x2018;" horiz-adv-x="423" d="M92 1055v137q0 21 12 41l99 170q10 16 16.5 21.5t20.5 5.5h69q19 0 19 -15q0 -9 -25 -51l-86 -143h59q15 0 21 -6t6 -21v-139q0 -15 -6 -21t-21 -6h-157q-15 0 -21 6t-6 21z" />
<glyph unicode="&#x2019;" horiz-adv-x="423" d="M96 1042q0 10 25 52l86 143h-60q-15 0 -20.5 6t-5.5 21v139q0 15 5.5 21t20.5 6h158q15 0 21 -6t6 -21v-137q0 -19 -13 -41l-98 -170q-10 -16 -16.5 -21.5t-20.5 -5.5h-69q-19 0 -19 14z" />
<glyph unicode="&#x201a;" horiz-adv-x="423" d="M96 -190q0 9 25 51l86 143h-60q-15 0 -20.5 6t-5.5 21v139q0 15 5.5 21t20.5 6h158q15 0 21 -6t6 -21v-137q0 -19 -13 -41l-98 -170q-10 -16 -16.5 -21.5t-20.5 -5.5h-69q-19 0 -19 15z" />
<glyph unicode="&#x201c;" horiz-adv-x="768" d="M92 1055v137q0 21 12 41l99 170q10 16 16.5 21.5t20.5 5.5h69q19 0 19 -15q0 -9 -25 -51l-86 -143h59q15 0 21 -6t6 -21v-139q0 -15 -6 -21t-21 -6h-157q-15 0 -21 6t-6 21zM436 1055v137q0 19 13 41l98 170q10 16 16.5 21.5t20.5 5.5h69q19 0 19 -15q0 -9 -25 -51 l-86 -143h60q15 0 20.5 -6t5.5 -21v-139q0 -15 -5.5 -21t-20.5 -6h-158q-15 0 -21 6t-6 21z" />
<glyph unicode="&#x201d;" horiz-adv-x="768" d="M96 1042q0 10 25 52l86 143h-60q-15 0 -20.5 6t-5.5 21v139q0 15 5.5 21t20.5 6h158q15 0 21 -6t6 -21v-137q0 -19 -13 -41l-98 -170q-10 -16 -16.5 -21.5t-20.5 -5.5h-69q-19 0 -19 14zM440 1042q0 10 25 52l86 143h-59q-15 0 -21 6t-6 21v139q0 15 6 21t21 6h157 q15 0 21 -6t6 -21v-137q0 -21 -12 -41l-99 -170q-10 -16 -16.5 -21.5t-20.5 -5.5h-69q-19 0 -19 14z" />
<glyph unicode="&#x201e;" horiz-adv-x="768" d="M96 -190q0 9 25 51l86 143h-60q-15 0 -20.5 6t-5.5 21v139q0 15 5.5 21t20.5 6h158q15 0 21 -6t6 -21v-137q0 -19 -13 -41l-98 -170q-10 -16 -16.5 -21.5t-20.5 -5.5h-69q-19 0 -19 15zM440 -190q0 9 25 51l86 143h-59q-15 0 -21 6t-6 21v139q0 15 6 21t21 6h157 q15 0 21 -6t6 -21v-137q0 -21 -12 -41l-99 -170q-10 -16 -16.5 -21.5t-20.5 -5.5h-69q-19 0 -19 15z" />
<glyph unicode="&#x2022;" horiz-adv-x="614" d="M102 365v342q0 15 6 20.5t21 5.5h356q15 0 21 -5.5t6 -20.5v-342q0 -15 -6 -21t-21 -6h-356q-15 0 -21 6t-6 21z" />
<glyph unicode="&#x2026;" horiz-adv-x="1247" d="M102 27v143q0 15 6 21t21 6h158q15 0 20.5 -6t5.5 -21v-143q0 -15 -5.5 -21t-20.5 -6h-158q-15 0 -21 6t-6 21zM518 27v143q0 15 6 21t21 6h157q15 0 21 -6t6 -21v-143q0 -15 -6 -21t-21 -6h-157q-15 0 -21 6t-6 21zM934 27v143q0 15 6 21t21 6h157q15 0 21 -6t6 -21 v-143q0 -15 -6 -21t-21 -6h-157q-15 0 -21 6t-6 21z" />
<glyph unicode="&#x202f;" horiz-adv-x="377" />
<glyph unicode="&#x2039;" horiz-adv-x="659" d="M121 537q0 17 24 53l234 338q11 16 18 21t21 5h84q18 0 18 -14q0 -11 -28 -51l-242 -350l248 -355q28 -40 28 -51q0 -14 -18 -14h-90q-22 0 -39 26l-234 338q-24 36 -24 54z" />
<glyph unicode="&#x203a;" horiz-adv-x="659" d="M133 940q0 14 19 14h90q22 0 39 -26l233 -338q25 -38 25 -53q0 -14 -25 -54l-233 -338q-11 -16 -18 -21t-21 -5h-84q-19 0 -19 14q0 10 29 51l242 351l-248 354q-29 41 -29 51z" />
<glyph unicode="&#x205f;" horiz-adv-x="472" />
<glyph unicode="&#x20ac;" d="M78 532q0 8 26 54l17 28q10 16 16.5 21.5t20.5 5.5h73v174h-135q-18 0 -18 14q0 8 26 54l17 28q10 16 16.5 21.5t20.5 5.5h73v121q0 93 20 158t59 108.5t106.5 68t150.5 34.5t203 10q73 0 143.5 -3t104.5 -5l35 -3q15 -2 20.5 -6.5t5.5 -19.5v-70q0 -15 -5.5 -20.5 t-20.5 -5.5q-1 0 -15 1t-39 2.5t-57 3t-78 2.5t-94 1q-124 0 -199.5 -11.5t-123 -41.5t-65 -77.5t-17.5 -125.5v-121h485q18 0 18 -14q0 -8 -26 -54l-17 -28q-10 -16 -16.5 -21.5t-20.5 -5.5h-423v-174h329q19 0 19 -14q0 -6 -27 -54l-16 -28q-10 -16 -16.5 -21.5 t-20.5 -5.5h-268v-145q0 -78 17.5 -125.5t65 -77.5t123 -41.5t199.5 -11.5q51 0 124 3t125 6l52 3q15 0 21 -6t6 -21v-69q0 -15 -6 -20t-21 -7q-178 -12 -301 -12q-120 0 -203 10t-150.5 34.5t-106.5 68t-59 108.5t-20 158v145h-135q-18 0 -18 14z" />
<glyph unicode="&#x2122;" horiz-adv-x="1595" d="M41 1339v76q0 15 14 15h596q15 0 15 -15v-76q0 -7 -3 -9.5t-12 -2.5h-241v-637q0 -14 -15 -14h-84q-12 0 -12 14v637h-244q-14 0 -14 12zM784 690v725q0 15 15 15h110q15 0 23 -15l229 -403l221 403q8 15 23 15h106q15 0 15 -15v-725q0 -14 -15 -14h-77q-13 0 -13 14v604 l-207 -383q-8 -14 -24 -14h-66q-10 0 -13 2t-9 12l-213 383v-604q0 -14 -15 -14h-75q-15 0 -15 14z" />
<glyph unicode="&#x25fc;" horiz-adv-x="1054" d="M0 0v1055h1055v-1055h-1055z" />
</font>
</defs>
</svg>
